<?xml version="1.0" standalone="no"?>
<!DOCTYPE svg PUBLIC "-//W3C//DTD SVG 1.1//EN" "http://www.w3.org/Graphics/SVG/1.1/DTD/svg11.dtd" >
<svg xmlns="http://www.w3.org/2000/svg">
<metadata></metadata>
<defs>
<font id="djb_holly_berry_wonderlandRg" horiz-adv-x="1350" >
<font-face units-per-em="2048" ascent="1638" descent="-410" />
<missing-glyph horiz-adv-x="969" />
<glyph horiz-adv-x="0" />
<glyph unicode="&#xd;" horiz-adv-x="508" />
<glyph unicode=" "  horiz-adv-x="969" />
<glyph unicode="&#x09;" horiz-adv-x="969" />
<glyph unicode="&#xa0;" horiz-adv-x="969" />
<glyph unicode="!" horiz-adv-x="679" d="M179 1859l1 14q4 106 154.5 92t153.5 -65l6 -126q7 -1431 -47 -1437.5t-78 31t21 1475.5q-161 -7 -184 -6l-7 1zM240 25v49q35 154 140 154q155 0 182 -189q0 -84 -133 -98q-25 0 -98 84v-14l14 -77l-35 -14q-70 35 -70 105zM436 67l28 -14h7q-24 49 -35 49v-35z" />
<glyph unicode="&#x22;" horiz-adv-x="780" d="M104 1284q123 78 140.5 247.5t-69.5 381.5l4 20q22 39 63 31l28 -5q88 -122 92.5 -399.5t-200.5 -335.5l-14 2q-32 6 -44 58zM405 1298q123 78 140.5 247.5t-69.5 381.5l4 20q22 39 63 31l28 -5q88 -122 92.5 -399.5t-200.5 -335.5l-14 2q-32 6 -44 58z" />
<glyph unicode="#" horiz-adv-x="1380" d="M52 94q149 207 172.5 283t46.5 250h-42q-77 11 -77 35v28q0 38 154 42l121 573l-44 1l-189 -7q-31 0 -49 42q0 77 126 77l174 5q15 155 112 342.5t247 199.5q70 -5 66.5 -34t-70.5 -38t-145 -153t-107 -315h178l91 -7q114 0 127 14q74 260 248 384t217 124q32 -14 35 -28 v-21q0 -65 -126 -91q-209 -131 -281 -382q88 -28 192 -28t102.5 -66.5t-290.5 -38.5l-49 7l-49 -553v-35q154 -16 142.5 -70.5t-177.5 -55.5q-89 -425 -179 -577q-124 6 -56.5 121.5t144.5 469.5l-428 27q-9 10 -49 -165t-97.5 -271t-113.5 -152h-14q-63 9 -63 63zM404 718 l427 -14l77 595q0 14 -385 21q-119 -508 -119 -602z" />
<glyph unicode="$" horiz-adv-x="1999" d="M15 458q-27 169 63 293t259.5 124t197.5 -203q-54 -252 -140 -252q-44 14 -49 35v7q0 20 91 168v21q0 100 -125 109.5t-161 -186t251 -335.5t579.5 -144t518 97t269.5 285.5t-45.5 288t-319.5 149t-623.5 89.5t-490 224.5t-11.5 362t345 279.5t503.5 52t333 -198.5 t76 -227t-67.5 -70.5t-61 117.5t-73.5 173t-194 98.5t-344 -24.5t-349 -184.5t-40.5 -297.5t745 -227t731.5 -345.5t-67.5 -472t-408.5 -246.5t-613 -20t-551.5 170.5t-228 290zM449 -279q370 2363 451 2384l7 2l42 -25l4 -14q-385 -2163 -410 -2381h-56q-30 7 -38 34z M911 -265q369 2363 451 2385l6 2l43 -25l4 -14q-385 -2164 -410 -2381h-56q-31 6 -38 33z" />
<glyph unicode="%" horiz-adv-x="1578" d="M46 1415.5q11 255.5 207.5 324t279.5 -57.5t69 -417t-259 -364l-63 -14h-35q-65 0 -137.5 136.5t-61.5 392zM90 -158q0 94 41.5 229.5t126 329t201.5 342.5t314 358.5t317 493.5t120 501q0 44 56 49q56 -5 -29.5 -384t-337 -655.5t-365.5 -418t-214.5 -363.5t-120.5 -408 t-32 -186h-7q-70 0 -70 112zM150.5 1340q-5.5 -234 121.5 -305l26 -7q93 0 164 95t58.5 266t-76.5 218t-176 7t-117.5 -274zM851 639.5q11 255.5 207.5 324t279.5 -57.5t69 -417t-259 -364l-63 -14h-35q-65 0 -137.5 136.5t-61.5 392zM955.5 564q-5.5 -234 121.5 -305l26 -7 q93 0 164 95t58.5 266t-76.5 218t-176 7t-117.5 -274z" />
<glyph unicode="&#x26;" horiz-adv-x="1592" d="M1 546.5q9 368.5 395 647.5l-134 110q-124 182 4.5 334.5t314.5 143t242.5 -119.5t6.5 -141h-7q-38 13 -77 92.5t-195 69t-216 -127t15 -206t271 -97.5t196 -73t-294 -73q-136 -26 -271 -170.5t-144.5 -419t187.5 -362.5t394 -34t255 160.5t58 248t-56 256.5 q-111 0 -150.5 -81.5t-7.5 -173t-16 -104t-77 178.5t188 278q266 59 389 220t150.5 407.5t-14.5 443.5q28 28 84 28q40 -155 12 -553t-447 -607l15 -44q78 -620 -262 -729.5t-579 10t-230 488z" />
<glyph unicode="'" horiz-adv-x="470" d="M109 1279q123 78 140.5 247.5t-69.5 381.5l4 20q22 39 63 31l28 -5q88 -122 92.5 -399.5t-200.5 -335.5l-14 2q-32 6 -44 58z" />
<glyph unicode="(" horiz-adv-x="550" d="M92.5 940q-11.5 331 23 579.5t85 356.5t98.5 99h12q47 -37 -28.5 -233t-81.5 -660.5t79.5 -701t86.5 -304t-62 -72.5q-65 0 -133 302.5t-79.5 633.5z" />
<glyph unicode=")" horiz-adv-x="607" d="M212 71.5q1 67.5 86.5 304t80 701t-81.5 660.5t-29 233h12q48 9 98.5 -99t85 -356.5t23 -579.5t-79.5 -633.5t-133 -302.5q-63 5 -62 72.5z" />
<glyph unicode="*" horiz-adv-x="964" d="M169 1042q0 16 133 161q0 21 98 140h-7l-168 -21l-28 56q31 50 231 77l-140 196q-89 81 -90 131.5t55 50.5h7q60 0 224 -294h7v7l-21 168q7 49 21 49q26 0 77 -210h7q185 301 224 301q45 -18 49 -35v-7q-118 -163 -231 -329q117 18 182 84h7q63 -51 63 -70 q0 -61 -280 -105l189 -553q-49 -42 -84 1.5t-71.5 137t-89.5 275.5q-16 -204 -35 -204q-37 0 -56 35v7l42 238l-231 -336l-7 -7h-14q-63 11 -63 56z" />
<glyph unicode="+" d="M70 900q4 63 102 56q446 -29 774 -23.5t329 -65t-76 -65.5l-1091 32q-28 2 -38 66zM606 1396q1 28 65 38q63 -5 57 -102q-10 -442 4.5 -763t-55.5 -322t-65 76z" />
<glyph unicode="," horiz-adv-x="557" d="M142 -522q123 78 140.5 247.5t-69.5 381.5l4 20q22 39 63 31l28 -5q88 -122 92.5 -399.5t-200.5 -335.5l-14 2q-32 6 -44 58z" />
<glyph unicode="-" horiz-adv-x="950" d="M56 1060q4 63 102 56q253 -10 489.5 2.5t237.5 -58t-76 -65.5l-715 -1q-28 2 -38 66z" />
<glyph unicode="." horiz-adv-x="557" d="M104 3v49q35 154 140 154q155 0 182 -189q0 -84 -133 -98q-25 0 -98 84v-14l14 -77l-35 -14q-70 35 -70 105zM300 45l28 -14h7q-24 49 -35 49v-35z" />
<glyph unicode="/" horiz-adv-x="1067" d="M-37 -128q959 2191 1043 2191h7l35 -35v-14q-924 -1994 -1003 -2198l-54 14q-28 14 -28 42z" />
<glyph unicode="0" horiz-adv-x="1387" d="M50.5 728q-32.5 407 69.5 666t336.5 404t545 -25.5t341 -560t-55 -660.5t-276 -406.5t-375.5 -138t-369 155.5t-216.5 565zM137 813q14 -325 186.5 -517.5t342.5 -179.5t297.5 132.5t223 330.5t62.5 492t-118.5 417.5t-250 227.5t-337.5 12.5t-296.5 -334.5t-109.5 -581z " />
<glyph unicode="1" horiz-adv-x="770" d="M48 1725q-2 35 142.5 87.5t165.5 53.5l49 2q56 3 60 -81l10 -1654q159 8 177.5 -56.5t-15.5 -82.5q-68 -3 -246 -7q-259 -12 -268 36l-1 7q-8 69 36 88l189 3l3 1590l-22 6l-228 -60q-38 -2 -50 26z" />
<glyph unicode="2" horiz-adv-x="1353" d="M24 94q179 405 627 742.5t448 567.5t-163.5 322t-403 70.5t-357.5 -223.5l-7 -42q71 -144 133 -181.5t49 -76t-71.5 -34t-152.5 160.5t18 313.5t405.5 178.5t469.5 -111.5t179 -360.5t-234.5 -442.5t-438.5 -388.5t-270.5 -310t-65.5 -140q151 -15 933 19h28 q16 272 84 272h7q28 -32 28 -63q7 -450 -45 -523l-63 53l-12 49l-9 77q-923 29 -1032 -34q-84 39 -84 105z" />
<glyph unicode="3" horiz-adv-x="1403" d="M54.5 624.5q71.5 169.5 337.5 192t360.5 -109t94.5 -210.5v-56q-46 -81 -105 28q-37 293 -305.5 255.5t-303.5 -180.5t71 -301.5t445.5 -135t447.5 111.5t130 224t-13 257t-134.5 203t-281.5 102t-175.5 78t77.5 58h70q220 0 299 131.5t61 257t-117 202t-317.5 54.5 t-291.5 -138.5t86 -240.5v-21l-21 -21h-35q-148 39 -158 192t158.5 243t359 90t295 -90t134.5 -281.5t-222 -447.5q329 -181 332.5 -502.5t-184 -438t-580.5 -127t-489.5 220.5t-25 400.5z" />
<glyph unicode="4" horiz-adv-x="1543" d="M23 714q0 40 59.5 112.5t492.5 574.5t510 502h7q14 0 28 -112l7 -329v-706h42l175 7l7 49q0 115 35 133h49q36 -28 32 -98t4.5 -282.5t-11.5 -223.5t-54.5 -8t-54.5 297l-210 7v-7l-7 -42q14 -402 14 -469v-7q121 14 144.5 -34.5t-25.5 -67.5q-434 -11 -470 5l-14 35 q16 56 42 56l190 6h28l-7 70v119l-14 336h-133h-558q-308 0 -308 77zM177 770l119 -14q165 0 733 14v594q0 257 -14 378h-7l-831 -965v-7z" />
<glyph unicode="5" horiz-adv-x="1637" d="M5.5 514.5q5.5 310.5 323 289t303 -236.5t-183 -211.5t-214.5 142.5q12 41 48 35l151 -80q62 -9 98.5 89.5t-178 141.5t-247 -96.5t34.5 -238t219.5 -177t424 -73.5t415.5 90.5t233 333t-70.5 443t-494 246.5t-417.5 -36q-86 -72 -141 -51t47 699l3 21q6 38 754 54l7 -1 q13 94 19 90l78 -6q3 0 2 -191t-48.5 -198t-59.5 185l-657 -13l-3 -20l-59 -457q130 68 502 15t546 -255.5t82 -570.5t-479 -456.5t-715.5 47.5t-323 446.5z" />
<glyph unicode="6" horiz-adv-x="1220" d="M3.5 860q-3.5 432 105.5 702.5t327 319t346 -79.5t89.5 -176.5t-121 57.5t-312 74.5t-326.5 -518.5l-7 -147q219 210 598 156.5t429.5 -409t-73.5 -597.5t-456.5 -247t-464 214t-135 651zM104 757q-13 -172 48 -353.5t243 -266t376 -14t252.5 276t-0.5 455t-364.5 289.5 t-423.5 -87.5t-131 -299.5z" />
<glyph unicode="7" horiz-adv-x="1470" d="M7 1610.5q1 124.5 0 194.5t104 70l1184 15q126 -20 126 -56v-21q-554 -642 -597.5 -905.5t-54.5 -436.5t3.5 -322t-37.5 -149q-63 0 -63 147q-14 696 152 1014.5t422 609.5q-1142 -5 -1142 -9v-41l5 -172q0 -44 -35 -63h-28q-40 0 -39 124.5z" />
<glyph unicode="8" horiz-adv-x="1603" d="M45.5 637q23.5 299 178 439.5t196.5 147.5v7q-202 167 -125.5 421.5t383.5 293.5t462.5 -79.5t162 -333.5t-166.5 -321q186 -79 277.5 -227t97.5 -325t-114.5 -356.5t-262.5 -239t-403.5 -65.5t-485 166.5t-200 471.5zM147.5 594q-3.5 -204 153.5 -345.5t445 -153 t479.5 155.5t182 477t-287 388.5t-511.5 45t-346 -198.5t-115.5 -369zM390 1605q-41 -189 70.5 -267t406 -73t315.5 201.5t-106 301.5t-386 65.5t-300 -228.5z" />
<glyph unicode="9" horiz-adv-x="1220" d="M18.5 1050q-50.5 355 73.5 597.5t456.5 247.5t464 -214t135 -651t-105.5 -702.5t-327 -319t-346 79.5t-89.5 176.5t121 -57.5t312 -74.5t326.5 518.5l7 147q-219 -210 -598 -156.5t-429.5 408.5zM127.5 1489.5q-58.5 -205.5 0.5 -455t364.5 -289t423.5 87.5t131 299.5 t-48 353.5t-243 266t-376 14t-252.5 -276.5z" />
<glyph unicode=":" horiz-adv-x="557" d="M89 243v49q35 154 140 154q155 0 182 -189q0 -84 -133 -98q-25 0 -98 84v-14l14 -77l-35 -14q-70 35 -70 105zM94 1137v49q35 154 140 154q155 0 182 -189q0 -84 -133 -98q-25 0 -98 84v-14l14 -77l-35 -14q-70 35 -70 105zM285 285l28 -14h7q-24 49 -35 49v-35z M290 1179l28 -14h7q-24 49 -35 49v-35z" />
<glyph unicode=";" horiz-adv-x="557" d="M123 1067v49q35 154 140 154q155 0 182 -189q0 -84 -133 -98q-25 0 -98 84v-14l14 -77l-35 -14q-70 35 -70 105zM174 -456q124 78 141.5 247.5t-69.5 381.5l4 20q22 39 62 31l28 -5q89 -122 93 -399.5t-201 -335.5l-14 2q-31 6 -44 58zM319 1109l28 -14h7q-24 49 -35 49 v-35z" />
<glyph unicode="&#x3c;" horiz-adv-x="3447" d="M32 1039l13 20q17 12 112 -20q242 -49 417.5 63t193.5 210q8 36 35.5 39.5t47.5 -26.5q4 -45 80 -192.5t280 -228.5q284 -93 356 -71.5t160 70.5q29 5 40 -4l7 -10q18 -27 -7 -145q-11 -52 49 -142l19 -29q116 -177 211 -247l2 -3l82 -78l3 2q-7 9 4 44q-7 302 -298 447 l-10 16q-22 34 -19 57.5t27 39.5q140 -18 190 15q123 83 212.5 179.5t121 249t-17.5 230.5q-24 36 -102 57l-19 18l-7 11q-7 9 25 35q58 27 86 -15q104 -30 206 -19q232 20 386 121l29 19l91 98l5 3q43 16 58 -7q20 -102 28 -284q26 -297 246 -482q22 -34 -4 -52l-5 -3 q-13 -8 -48 -9l-17 -8q-76 -49 -209 -158.5t-171.5 -158t-61.5 -165t-50 -277.5q-10 -48 -41.5 -68.5t-50.5 -10.5l-7 10q-42 76 -80.5 108.5t-215.5 -8.5l-43 -21l-43 -27q-103 -75 -97 -95l2 -2q173 89 272 -42t33 -268.5t-217.5 -94.5t-153.5 172l-7 10q-8 7 -21 -2 q-228 -151 -357.5 -46t-102.5 260.5t162 214.5l3 1l-2 3q-119 12 -141 2q-167 -8 -229 -49q-48 -49 -91 -132l-21 -14q-17 -11 -92 76q-96 54 -254 98q-168 18 -310 -76l-198 -142q-57 -4 -78 28q-7 10 -3 131q-18 181 -106 331.5t-166 253.5q-49 55 -90 78t-31 111z M177 949q112 -116 203 -253.5t117 -266.5t34 -184l2 -20l2 -2l2 1l122 91l12 8q138 91 258 88q64 6 179 -24q126 -51 207 -104q11 -4 17 0q31 49 96 103q121 59 337 44l87 -20l-1 2q-60 59 -144 186q-51 78 -46 200l-4 5q-135 -42 -243.5 -23.5t-175.5 45.5 q-146 32 -251.5 131t-153.5 215q-36 -41 -180 -135.5t-282 -93.5t-192 15zM693 672.5q-8 17.5 24.5 35t207.5 15.5q316 -65 342.5 -75.5t233.5 -74.5q53 -17 76 -52l4 -6q9 -14 1 -29l-8 -6q-44 -2 -190 60.5t-452 126.5q-133 10 -182 -1t-57 6.5zM1743 37.5 q16 -104.5 94 -131t131.5 2.5t78 59.5t37 73t5.5 71t-19 46.5l-2 3q-71 107 -194 79q-32 -9 -89.5 -54t-41.5 -149.5zM1947 780l8 -13q126 -85 174 -158.5t67 -158.5t35 -189l5 -8q43 43 84 70l33 22q50 32 179 49t219 -120l3 2q8 33 22 183.5t51.5 219t227.5 233.5 q114 97 149 120l50 30l-2 2q-18 28 -98.5 159t-117.5 477l-2 21l-3 -2q-230 -152 -399 -178t-213 -15l-2 -2q45 -115 24 -218t-70.5 -198t-99.5 -144.5t-163 -131.5q-53 -35 -156 -49zM2209 361q-14 37 11 53q252 257 332 385q122 201 186 316q54 126 60.5 157t37.5 10 q14 -28 -24 -118q-27 -77 -59 -146q-326 -505 -423 -599.5t-121 -57.5zM2251 -121l8 -12q85 -120 165.5 -75t71 120t-65.5 144t-153 -2q-73 -48 -26 -175z" />
<glyph unicode="=" horiz-adv-x="1014" d="M61 1177q4 63 102 56q253 -10 489.5 2.5t237.5 -58t-76 -65.5l-715 -1q-28 2 -38 66zM70 881q4 63 102 56q253 -10 489.5 2.5t237.5 -58t-76 -65.5l-715 -1q-28 2 -38 66z" />
<glyph unicode="&#x3e;" horiz-adv-x="3795" d="M48 1586q-6 43 37 49l15 3q27 -6 75 -1q177 6 346.5 67t260.5 178q14 14 32 17l6 1q67 10 75 -42q66 -144 173 -208.5t189.5 -72.5t152.5 48q13 -3 14 -7l1 -9q-54 -139 -143 -118.5t-185.5 47.5t-184 139t-87 122.5t-91 -77t-233 -125t-326.5 -50.5l-3 -4h-3 q14 -36 117.5 -178.5t156.5 -413.5q290 172 494 -110l19 -3q10 1 123.5 115t290 136t187.5 21q11 1 19 58q-2 48 -160 94t-336.5 38.5t-234.5 -13.5q-13 3 -16 20q-6 43 247.5 68.5t409.5 -46.5h3v3q-60 66 -80.5 98.5t-33 113.5t15.5 85l9 1q35 6 48 -27q-14 -54 -11 -76 q17 -109 218 -282q32 -13 71 -5.5t69.5 -0.5t81.5 -41l6 1q-110 64 -140 199t20 244.5t159 122.5t159.5 -62t44.5 -137.5t-72.5 -99t-115.5 -12.5t-45 93t95 89l6 1q17 2 77 -38l3 3q-59 116 -156.5 101t-120 -171t85.5 -249l65 -43l3 1q73 63 215 42l28 1l24 4q53 8 67 80 t10 153l-6 17l-3 19q-2 40 34 45q58 0 111 8q170 38 244.5 127.5t54.5 220.5q2 44 24 47q28 4 161 -97q429 -184 570 -162q225 34 228 16l3 -19q3 -22 -74 -151q-144 -281 -144 -418.5t37 -245.5l1 -9l24 -53q5 -36 -19 -39t-46 17q-15 18 -72 33t-203 -13t-254 -102 t-179 -182q-40 -85 -31.5 -151t-20 -74t-44.5 39l-6 143l-3 15q-17 113 -156 198.5t-192.5 113.5t-124.5 36q18 -40 102 -78q44 -29 104 -127q3 -26 88 -71q41 -42 49 -98q11 -70 -67 -180t-127.5 -117.5t-105 91.5t-65.5 47t66 -132.5t-49 -108t-175.5 -7t-99.5 6.5 t-52.5 -123t62 -154t139 -21.5t72.5 106t14.5 102t64.5 27t121 -50.5l13 -1l3 1q71 41 139 52q88 13 153 -67.5t132 -143.5t130.5 -55t105.5 44t32.5 123.5t-93 162.5t-107 34t60.5 -76q27 -8 50 -4q26 -34 3 -37l-16 -3q-139 -11 -151.5 83.5t83 106t185 -163.5t-6.5 -259 t-180.5 -75.5t-159.5 83.5l1 -6q19 -123 -24 -172.5t-106 -26.5t-68 99.5t134 192.5q-75 120 -169 105l-6 -1q-71 -10 -101 -71q2 -128 -51 -136q-20 6 -27.5 56.5t18.5 82.5q-4 30 -80 59l-16 1q-42 -6 -39.5 -109.5t-115.5 -123.5t-181.5 49.5t-73 132.5t2 126.5t60.5 103 t139.5 12t182.5 -10.5l-2 15q-3 21 -59 97t24 172l16 3q64 9 92 -95q49 -80 84 -74.5t139 182.5l1 38q-10 64 -94 82q-9 -1 -24 -17.5t-32 -55t-43.5 -42.5t-45.5 41.5t34 97t52 61.5q-3 20 -67 89l-11 -11q10 -63 -62 -148.5t-181.5 -84t-157.5 58t-65 165.5h-3 q-24 -105 -17.5 -209t59.5 -157t37.5 -81t-80.5 -37t-140 -94.5t-83 -399.5l23 -53l2 -12q0 -59 -31 -64q-15 -2 -91.5 43.5t-162 81t-195.5 19t-179 -51.5t-104 -39t-39.5 26t36.5 89q17 88 -6.5 285t-82.5 238q-79 46 -84 80l-1 3q-4 31 66 41l45 10q85 13 153 33l-38 -52 l-19 22l-1 9q-1 5 119.5 64.5t190.5 163t68 169.5q-17 28 -2 54t34 29t60.5 -19t161.5 -21t123 21q-25 80 -94 91.5t-201 -21t-221.5 -149t-92.5 -145t-28 -32.5q-70 -11 -74 16q-11 49 -56 108t-107.5 93.5t-131.5 29t-199 -115.5l-10 -1q-22 7 -27 36l-2 12 q-40 381 -329 707zM805 391q69 -86 99 -207t11 -342l4 -8q177 54 266.5 54t311.5 -78l3 1q16 252 40 330.5t88.5 130t98 62.5t32.5 20q-46 66 -56.5 135t-9.5 110.5t35 146.5q-124 -16 -210.5 -100.5t-178 -221t-148.5 -192.5l-14 -2q-12 4 -14 12q2 32 124 207t151 214 t82 77.5t180 75.5q16 2 68 -5v6q-14 8 -86 20q-29 16 -40 14l-51 -16l-17 -3q-94 -14 -261 10l-5 -1q-12 -1 -12 -37q-49 -193 -182.5 -279.5t-167.5 -96t-141 -37.5zM1652 1057l1 -9q10 -65 50.5 -95.5t120 -10t72 80t-28.5 103t-103.5 28t-111.5 -96.5zM1861 760 q18 -116 117.5 -126.5t160.5 49.5t54 110q-15 58 -139 163l-9 -1l-115 -50q-28 -4 -69 -86v-59zM1954 1528q5 -33 88 -5l-1 6q-5 37 -61 37q-29 -17 -26 -38zM1989.5 1135.5q-2.5 -66.5 70.5 -93.5t124 11.5t51 79t-37 69t-121.5 14.5t-87 -80.5zM2262 977l1 -3 q17 -11 121.5 -57.5t208 -119.5t141.5 -160q3 23 52 76.5t123 118t166.5 90.5t174 39.5t179.5 1.5q-60 261 56.5 479.5t113.5 233.5h-2l-33 -2l-12 -2q-165 -25 -297.5 10t-215 66t-244.5 142q7 -128 -57.5 -202.5t-132 -105.5t-224.5 -67q-26 -4 -39 -177q-12 -65 -65 -106 l-3 -1q50 -48 56 -87v-3h3q87 74 176 111t225 74.5t313 34.5l8 -14q-5 -54 -42 -60q-129 10 -259 -25t-282 -103.5t-202 -171.5zM2595 -254q-16 -66 25 -75t58.5 45.5t12.5 85.5q-8 21 -16 20q-64 -10 -80 -76z" />
<glyph unicode="?" horiz-adv-x="2206" d="M222 1456q27 169 228 290t551.5 170.5t613 -20t408.5 -246.5t67.5 -472t-731.5 -345.5t-735.5 -163.5t50 -234t24.5 -143.5t-193 159t2 298.5t480.5 161t623.5 89.5t319.5 149t45.5 288t-269.5 285.5t-518 97t-579.5 -144t-251 -335.5t161 -186t125 109.5v21 q-91 148 -91 168v7q5 21 49 35q86 0 140 -252q-28 -203 -197.5 -203t-259.5 124t-63 293zM499 15q35 154 140 154q155 0 182 -189q0 -84 -133 -98q-25 0 -98 84v-14l14 -77l-35 -14q-70 35 -70 105v49zM695 8l28 -14h7q-24 49 -35 49v-35z" />
<glyph unicode="@" horiz-adv-x="2032" d="M15.5 632.5q-10.5 403.5 176 726.5t576 420.5t728 -131.5t407.5 -692h-7l-84 -14q-78 425 -424 619.5t-641.5 99.5t-456.5 -379.5t-155 -615.5t230 -539.5t466 -211.5t382.5 38t153.5 -9t-173.5 -109t-412.5 -50t-490.5 226.5t-275 621zM397 597.5q-47 378.5 128.5 618 t418 277.5t410.5 -56q2 -13 82 -40q12 -895 18 -951l2 -14q17 -73 118.5 -71.5t171.5 89.5t65 332.5t32 280.5l28 3q-16 100 30 -68q53 -522 -102.5 -667t-288 -86.5t-137.5 107.5q-231 -262 -580 -197.5t-396 443zM512.5 694q22.5 -306 194 -381.5t331.5 -43.5t266 195 q18 2 0 728l-6 56q-17 148 -239.5 143.5t-395.5 -198t-150.5 -499.5z" />
<glyph unicode="A" horiz-adv-x="2513" d="M23 1283q-26 85 -26 162q0 175 135 309q190 187 425 186h11q242 -4 1403 -12q122 0 140 35h14q63 -47 63 -91q-21 -52 -21 -105l70 -1547q0 -105 14 -106q32 2 60 3q164 0 164 -58v-7v-14q-1 -34 -277 -42q-77 -2 -132 -2q-144 0 -144 16v13q0 64 39 64l140 12 q16 3 17 107q-16 511 -49 511h-7q-1095 -3 -1158 -7q-96 -155 -108 -494q-1 -25 -1 -48q-1 -304 147 -471q135 -152 314 -152q33 0 67 5q204 30 204 220q1 16 -1 33q-18 209 -185 209q-9 0 -19 -1q-184 -12 -184 -120v-42q0 -84 112 -84q63 6 63 21q-83 0 -126 49v28 q25 42 63 42q14 1 27 1q180 0 197 -127q-47 -127 -208 -127q-26 0 -55 3q-194 22 -194 179q1 10 1 22q14 178 146 240q67 31 142 32q74 0 156 -30q154 -56 154 -314q0 -22 -2 -44q-14 -296 -286 -304h-25q-256 0 -428 156q-179 163 -179 612q0 456 180 746q179 288 621 844 l5 29l-7 7h-84q-291 15 -508 15q-498 0 -602 -80q-149 -115 -186 -257q-12 -45 -12 -88q1 -91 55 -170q71 -103 223 -103q19 -1 40 1q162 13 162 126q1 16 -3 34q-24 136 -91 136h-8q-60 -7 -60 -44q0 -8 3 -18q1 -12 1 -22q-1 -92 -41 -98q-6 -1 -11 -1q-35 0 -47 30 q-14 35 -14 119v7q45 161 175 171h9q123 0 179 -249q9 -40 9 -75q0 -190 -264 -222q-38 -5 -72 -4q-250 0 -325 245zM932 836h7q471 -9 746 -9q393 0 388 18l-2 967l-16 -3l-383 -14h-1q-33 0 -739 -959z" />
<glyph unicode="B" horiz-adv-x="2110" d="M-7 1791v7q0 36 35 49l49 -7h70q240 42 308 77q63 -6 63 -21l-7 -77q252 161 506 179q60 4 117 5q182 1 324 -45q187 -60 305 -210t124 -352q0 -6 1 -11q0 -194 -194 -308q142 -94 242 -234q97 -136 97 -335v-12q-3 -206 -135 -318q-133 -110 -307 -152 q-102 -24 -217 -25q-82 1 -170 13q-214 30 -352 194q-78 94 -77 212q0 90 45 194q90 205 303 204q36 0 74 -5q262 -39 262 -224q-1 -7 -1 -15q-10 -199 -136 -205q-14 -1 -28 -1q-108 0 -178 42q-49 29 -49 61q1 19 19 39q37 41 51 42q5 0 7 -4q10 -16 100 -70 q26 -15 47 -15q51 0 69 95q2 13 2 25q0 109 -192 121q-13 1 -26 0q-190 0 -240 -182q-14 -53 -14 -100q0 -125 100 -210q125 -105 397 -106q30 0 62 2q321 14 438 266q43 93 43 178q0 148 -127 272q-201 198 -270 197h-7q-228 -70 -336 -70h-49l-21 21v21q63 91 203 112 t304.5 73t168.5 229v6q0 175 -204 331q-203 157 -446 156h-9q-249 -3 -432 -83t-186 -269v-7q-6 -410 -6 -706q0 -609 24 -733q0 -5 70 -5q119 -14 119 -35l-7 -43q-18 -36 -112 -36q-4 1 -8 1q-101 2 -265 1h-154l-10 65q-1 3 -1 6q0 36 125 36q38 0 87 -3q8 1 8 226 q0 392 -25 1462h-7l-231 -56q-133 0 -133 70z" />
<glyph unicode="C" horiz-adv-x="2027" d="M44 1256q86 322 316 523q176 154 424 155q76 0 156 -14q350 -60 478 -262q78 -122 78 -276q0 -100 -33 -214q-83 -288 -383 -334q-74 -11 -135 -11q-189 0 -265 106q-73 101 -73 236q1 53 11 109q38 204 220 224q40 4 74 5q123 1 176 -57q68 -74 76 -151q1 -10 1 -19 q0 -58 -44 -58q-47 0 -63 105q-61 77 -191 77t-147 -154q-4 -33 -3 -62q-1 -108 49 -162q64 -69 238 -70h3q171 0 275 110q104 112 104 330q1 216 -213 322q-195 96 -399 97q-19 0 -39 -1q-224 -10 -408 -254q-183 -246 -205 -530q-2 -32 -3 -64q1 -252 149 -504 q168 -284 586 -328q93 -10 176 -9q294 -1 476 119q234 154 272 358q38 206 81 242q15 13 28 12q26 0 49 -46q-9 -220 -142 -452q-134 -232 -396 -308q-188 -54 -394 -54q-81 0 -165 8q-297 30 -494.5 165t-291.5 453q-49 166 -49 333q-1 152 40 305z" />
<glyph unicode="D" horiz-adv-x="2003" d="M-17 1903l21 14l399 14h42q30 0 70 -231q85 108 329 180q83 25 174 25q174 1 375 -91q305 -138 433 -474q78 -206 78 -458q0 -157 -31 -332q-79 -449 -530 -449h-9q-460 5 -596 177q-88 111 -88 221q0 61 26 121q74 170 214 186q23 3 43 2q105 0 149 -70q52 -84 52 -164 v-42q-19 -98 -77 -98h-7q-38 0 -56 175q-28 100 -89 100q-21 -1 -43 -11q-91 -41 -91 -170q1 -5 1 -10q4 -138 130 -220q126 -81 312 -95q39 -3 76 -3q139 0 248 42q138 52 218 268q54 145 55 332q0 91 -13 191q-39 308 -223 511q-185 202 -429 238q-63 9 -121 10 q-167 0 -292 -78q-169 -105 -204 -210l-11 -1042q9 -222 30 -307l142 -13q138 -10 138 -60q0 -59 -103 -59h-49l-518 -14l-22 12q-6 44 -6 72q0 45 17 45q166 16 218 16q22 0 23 -3q24 269 30 965q0 62 1 119q0 577 -51 577q-25 6 -56 6q-48 0 -110 -13q-70 -14 -120 -14 q-24 0 -44 3q-56 9 -55 94v15z" />
<glyph unicode="E" horiz-adv-x="1974" d="M21 79q0 42 42 56l182 -7h84l35 14l23 365q-23 1281 -77 1281l-133 -14q-77 14 -77 70v21q0 21 56 35l154 -7h364l734 20h84l252 7q56 -29 56 -63l13 -448q-37 -28 -77 -28h-21q-28 9 -28 63l1 356q0 4 -120 4q-266 0 -1120 -21q-5 12 -5 -30l35 -595l56 -14l462 -14v-7 q-12 250 -12 257q0 56 68 64h4q66 0 66 -307q14 -469 18 -535v-7q0 -60 -60 -60q-56 0 -56 105l-19 382l-506 -11q5 -685 12 -876q46 -7 168 -7h168l784 14q146 8 154 18q3 4 3 30q0 44 -8 152q-3 37 -3 67q0 106 38 106h42q43 -1 45 -243v-11q0 -231 -96 -231l-1701 -21 q-84 16 -84 70z" />
<glyph unicode="F" horiz-adv-x="1719" d="M1 1837v42q0 35 399 35l1073 19q168 -31 178.5 -58.5t10.5 -158.5v-196q0 -175 -42 -175h-49q-24 0 -26 74t-2 227v14q0 154 -112 154l-993 -20q1 2 1 -10q0 -20 -4 -80l-13 -590q123 -4 218 -4q313 0 313 48v168q0 112 63 112h7l49 -35v-42l-14 -420l21 -280 q-14 -42 -77 -42q-56 0 -56 105q-14 292 -13 292l-497 -21q-12 -108 -12 -282q0 -230 21 -577h7l231 14q63 0 67 -54q0 -3 1 -5q0 -49 -75 -74l-482 10q-63 9 -63 63q0 52 119 56h70q2 621 2 1009q0 647 -6 647h-189q-126 0 -126 35z" />
<glyph unicode="G" horiz-adv-x="2443" d="M26 950q-1 29 -1 57q0 353 213 615q230 283 544 346q99 20 198 20q216 0 432 -95l203 -5q43 -1 43 -58q0 -46 -93 -46h-8q-21 -17 -22 -41q11 -21 11 -76q0 -44 -6 -107q-16 -147 -159 -172q-21 -4 -40 -4q-112 0 -165 126q-17 39 -17 77q0 106 132 203q1 47 -267 78 q-34 3 -68 3q-236 0 -482 -186q-280 -213 -320 -669q-4 -49 -4 -96q0 -386 288 -603q305 -231 638 -231q19 0 38 1q353 14 521 323q30 75 47 244l-23 360l1 21l-95 21q-37 1 -71 1q-311 0 -366 -123q-32 -72 -32 -157q0 -75 25 -159q-25 -48 -70 -48h-2q-69 2 -82 230 q-1 12 -1 23q0 211 240 300q146 54 332 54q137 0 295 -29l133 -3h11q207 0 263 149q57 154 69 159h7q75 -15 75 -113q0 -3 -1 -6q-2 -103 -87 -200.5t-529 -123.5q4 -770 35 -1311q-35 -47 -71 -47q-33 0 -67 39l-9 40q3 132 3 231q0 287 -26 287q-160 -260 -513 -265h-28 q-334 0 -561 113q-237 118 -364.5 291t-146.5 562zM1273 1561q17 -74 83 -74q18 0 40 6q54 14 54 79q0 57 -41 153q-139 -61 -139 -141q0 -12 3 -23z" />
<glyph unicode="H" horiz-adv-x="2146" d="M9 1838v28q0 56 77 63h50q442 0 442 -34l-2 -62q-8 -18 -217 -18v-7l-17 -750l98 -7q1353 105 1353 124l-14 485l-4 125h-235q-47 19 -63 42v7q0 81 158 81h12q170 -3 251 -3q213 -8 213 -56q1 -7 1 -14q0 -50 -76 -56q-86 -6 -152 -8q-10 -54 -10 -274q0 -400 32 -1351 q141 -18 186 -28q21 -26 21 -63q2 -60 -347 -60q-42 0 -88 1q-84 8 -84 61t49 53l141 30l-9 778q0 104 -4 104l-1 -1l-1393 -96l-28 -21l1 -756q224 -17 224 -66q0 -50 -69 -70l-403 4h-14q-38 0 -49 28v14q0 84 133 84l82 12l-18 1595q2 20 2 34q0 32 -12 32l-147 -12 q-70 9 -70 28z" />
<glyph unicode="I" horiz-adv-x="723" d="M80 1833q-1 8 -1 15q0 40 48 45l460 -3q49 -16 49 -56q2 -8 2 -15q0 -31 -49 -36l-173 -12v-7l7 -63l10 -1562q9 -13 219 -13q43 -10 43 -54v-8q-4 -50 -50 -50l-533 -2q-14 0 -28 42q0 70 70 70l140 8l19 1639q2 4 -160 9q-74 8 -74 45q0 4 1 8z" />
<glyph unicode="J" horiz-adv-x="925" d="M-726 -736q-21 79 -21 152q0 196 144 354q134 146 300 146q80 0 167 -34q269 -103 269 -356q0 -249 -209 -292q-48 -10 -87 -10q-136 0 -179 116q-20 53 -20 97q0 78 63 125q65 49 138 49q38 0 78 -13q28 0 35 -54v-6q0 -38 -69 -38q-14 0 -32 2q-11 1 -21 1 q-89 0 -89 -86q0 -85 121 -85h14q135 6 135 199v9q-3 202 -247 242q-38 7 -73 7q-184 0 -259 -182q-54 -130 -54 -237q0 -71 24 -132q59 -153 238 -241q131 -64 304 -64q64 0 134 9q258 32 373 249q95 180 95 1018q0 174 -4 378q-24 1179 -62 1179h-14q-102 0 -193 2 q-77 3 -77 66q0 12 3 26q9 31 92 31l541 -1q35 -18 35 -56q0 -68 -115 -68t-110 -3q-1 -30 -1 -93q0 -278 29 -1194q6 -208 6 -385q0 -782 -128 -977q-156 -240 -454 -281q-92 -13 -177 -13q-190 0 -345 63q-224 91 -298 381z" />
<glyph unicode="K" horiz-adv-x="2115" d="M-4 1889q12 35 258 35q53 0 116 -2q105 0 105 -84q6 -28 -112 -28h-7q-28 0 -28 -212q0 -111 8 -281q80 276 358 528q276 251 566 309q102 20 195 20q171 0 309 -68q214 -106 232 -562q0 -240 -181 -240h-7q-188 4 -196 192q-1 13 0 26q0 162 90 162h7q23 -20 23 -61 q0 -16 -4 -35q-7 -37 -6 -72q0 -30 4 -58q10 -62 84 -61.5t74 133.5v70q0 370 -214 432q-106 31 -221 31q-119 -1 -249 -33q-254 -64 -564 -386q101 22 228 22q74 0 154 -7q222 -21 290 -339q38 -178 39 -389q0 -167 -24 -355q-11 -87 -11 -156q0 -275 168 -298q45 -6 85 -6 q149 0 231 86q104 108 110 296q4 166 59 165q7 -1 15 -3q40 -14 41 -115q0 -78 -24 -208q-54 -299 -343 -326q-45 -4 -86 -4q-220 0 -308 123q-61 85 -62 346q0 187 32 464q11 94 10 174q0 451 -340 450q-25 0 -53 -2q-315 -8 -401 -230t-86 -713.5t32 -491.5h7l168 -8 q42 -14 42 -28v-14q-9 -63 -63 -63l-453 -5h-14q-49 0 -49 42q0 60 229 76q-41 1676 -41 1684l-203 6q-24 21 -24 47q0 12 5 25z" />
<glyph unicode="L" horiz-adv-x="1812" d="M5 1877q0 29 208 29q37 0 80 -1q288 -6 352 -6l21 -21v-7q-11 -77 -35 -77l-194 2l19 -1658q766 6 1039 5q152 0 152 -1q10 141 10 234q0 97 -11 139q0 42 56 49q49 0 49 -348q0 -81 -3 -181q8 -20 -758 -20q-215 0 -490 2l-245 -7q-145 10 -140 26q-4 14 -4 27 q0 71 116 80h7l96 4l-5 1586q0 52 -21 56q-47 0 -250 4l-7 7q-42 52 -42 77z" />
<glyph unicode="M" horiz-adv-x="2762" d="M-347 -319q19 149 237 179q32 4 60 4q162 0 184 -153q3 -20 3 -38q0 -141 -184 -142l-36 11v42q0 56 98 56l28 21l7 7v21q0 68 -86 68q-29 1 -68 -7q-137 -27 -137 -130q0 -13 2 -26q19 -124 121 -186q47 -28 111 -28q76 0 178 39q187 73 201 221v14l-24 2129l-56 7h-29 q-239 0 -239 48l5 48q-5 8 180 22q68 5 137 6q119 0 242 -16q22 -17 691 -1186l7 -7h7q105 205 442.5 673t348.5 468q179 17 324 17q161 0 280 -21l2 -47l-14 -37l-277 -3l17 -1455l14 -192q41 3 73 3q107 0 122 -33q3 -11 3 -21q0 -42 -54 -53l-458 -10l-14 49q3 26 45 50 h28l104 19q31 -1 31 22v165q0 1449 -51 1449l-152 -12q-744 -1129 -758 -1129q137 -272 154 -329l19 -106q-4 -34 -252 -36h-29q-220 0 -235 23q0 64 80.5 221t115.5 241q-655 1168 -704 1168h-1h-14l-9 -27l3 -1989q-2 -343 -167 -451q-116 -76 -240 -75q-52 -1 -108 13 q-184 46 -256 160q-57 89 -57 199q0 30 4 62zM1150 253l234 -3v7l-99 259h-7z" />
<glyph unicode="N" horiz-adv-x="1966" d="M-204 -530q10 234 179 256q22 3 42 2q133 0 161 -126q10 -43 10 -79q0 -83 -55 -125l-14 1q-53 2 -68 38l1 14l46 89v7q3 67 -84 83l-14 2q-74 0 -88 -152q-1 -15 -2 -28q0 -142 147 -180q39 -10 77 -11q116 0 216 100q132 132 159 544q14 204 14 490q-1 291 -15 665 q-28 742 -49 743l-438 19q-6 36 -6 62q0 63 36 65l506 9l21 -1q104 -16 209 -306t819 -1396h7v14h7q35 1703 151.5 1932t336.5 230h2q218 -1 250 -197q6 -35 6 -65q0 -140 -122 -177q-45 -14 -81 -14q-83 0 -119 73q-26 53 -27 87q0 32 24 45q15 9 27 9q27 0 41 -44 q16 -51 68 -51q11 0 25 3q65 12 66 90q0 11 -2 23q-10 99 -154 105q-4 0 -9 1q-138 0 -244 -197q-109 -203 -148 -1850q-1 -27 -1 -52q0 -76 9 -136q1 -9 1 -18q0 -53 -59 -53q-10 0 -22 2q-123 -1 -1057 1759q58 -1015 59 -1580q0 -524 -50 -662q-103 -286 -279 -358 q-91 -37 -181 -37q-84 0 -169 32q-166 63 -166 277v24z" />
<glyph unicode="O" horiz-adv-x="1820" d="M30 1052q60 394 295.5 626t540.5 250q23 1 47 2q280 0 547 -205q288 -222 320 -645q5 -62 5 -121q0 -347 -157 -610q-184 -308 -728 -317h-30q-520 0 -707 309q-147 243 -147 530q0 88 14 181zM203 566q140 -348 469 -406q137 -24 254 -23q166 0 295 47q219 80 343 300 q107 191 108 468q0 41 -2 85q-18 333 -200 514t-390 223q-64 13 -132 12q-153 0 -327 -64q-252 -93 -405 -450q-80 -186 -80 -371q0 -168 67 -335z" />
<glyph unicode="P" horiz-adv-x="1848" d="M39 1854q-3 26 280 26q47 0 102 -1l32 -178h7q106 169 405 265q113 36 226 37l372 -99q297 -156 296 -513q1 -3 1 -6q-2 -362 -162 -520q-161 -159 -533 -181q-22 -1 -43 -1q-330 0 -345 337q-1 14 -1 28q0 131 120 208l117 25q222 -54 222 -191q0 -139 -78 -147h-9 q-52 0 -52 53q0 23 56 73l-1 14q-63 74 -134 74q-23 0 -47 -8q-88 -29 -88 -147q0 -14 1 -28q11 -142 217 -170q43 -6 86 -7q164 0 326 86q206 108 229 403q3 37 3 73q0 241 -144 379q-144 137 -415 138q-41 0 -85 -4q-334 -24 -532 -345l37 -1431l150 -5l8 -48 q2 -54 -104 -54q-8 1 -17 1q-123 4 -302 11q-24 28 -24 55q0 28 26 54l119 4l-1 7l-20 1529l3 109q-10 15 -259 19q-59 7 -59 39q0 16 14 37z" />
<glyph unicode="Q" horiz-adv-x="1614" d="M44 728q-4 63 -4 124q0 266 60 483q73 266 237 433t481 182h31q296 0 505 -258q201 -248 201 -645q0 -36 -2 -73q-20 -448 -145 -684.5t-345 -236.5l308 -343l238 35q28 -7 28 -28q-48 -126 -161 -131q-15 -1 -29 -1q-93 0 -145 29q-59 33 -239 257q-128 140 -294 147 q-155 0 -259 -245l7 -84q0 -40 -56 -84h-28q-24 0 -35 70q28 214 91 294l70 91q-159 0 -329 164t-186 504zM166 742q27 -384 212 -494q166 -99 435 -99q32 0 65 1q315 13 432.5 196t133.5 660q2 30 2 57q0 433 -240 613q-191 144 -397 144q-70 0 -142 -16 q-284 -65 -406 -372q-100 -250 -100 -553q0 -67 5 -137z" />
<glyph unicode="R" horiz-adv-x="2116" d="M36 1792q-2 6 -2 11q0 55 216 55q55 0 124 -3q119 0 119 -140v-98l-7 -7v-7h7q123 226 307 289q101 35 267 34q137 0 319 -23q402 -52 544 -364q73 -159 73 -294q0 -129 -67 -237q-137 -220 -404 -277l-194 -30v-21q0 -42 80.5 -371.5t407.5 -718.5q316 -376 618 -376h20 q312 14 352 210q11 52 11 98q0 126 -81 200q-97 89 -218 89q-17 0 -34 -2q-142 -14 -151 -143q-1 -10 -1 -20q0 -112 95 -144q19 -7 36 -7q75 0 109 128q30 0 56 -49v-14q0 -167 -154 -167q-28 -1 -60 5q-191 32 -191 226q1 23 3 48q26 238 258 250q19 1 39 2 q205 0 315 -127q89 -103 90 -279q0 -60 -11 -128q-41 -270 -462 -285h-25q-407 0 -762 477q-366 492 -445 1070q-18 42 -56 42q-372 30 -641 35h-1q-11 0 -11 -152v-452l221 -17l14 -42v-35q3 -3 3 -5q0 -11 -62 -11q-189 -6 -311 -6q-231 0 -231 20v7q-12 16 -12 29 q0 28 54 41l213 31q6 -1 6 244v462l-3 662q-12 231 -49 231h-70q-77 -12 -131 -12q-130 0 -130 68zM535 1449q-10 -79 -10 -221q0 -156 12 -387q242 -26 501 -26q136 0 276 7q408 21 535 244q58 102 58 209q0 126 -81 258q-150 243 -636 279q-40 3 -77 3q-423 0 -578 -366z " />
<glyph unicode="S" horiz-adv-x="1999" d="M15 458q-6 39 -6 76q0 122 69 217q90 124 259.5 124t197.5 -203q-54 -252 -140 -252q-44 14 -49 35v7q0 20 91 168v21q0 99 -125 109q-6 0 -11 1q-115 -1 -150 -187q-4 -22 -4 -42q0 -168 255 -293q288 -140 580 -144h22q280 0 496 97q226 102 269 286q15 61 15 112 q0 106 -60 176q-90 104 -320 149t-624 89t-490 224q-51 96 -51 193q0 85 40 169q85 182 345 280q177 67 346 67q80 0 158 -15q244 -46 270 -68l105 7h21q80 0 91 -35q0 -14 -105 -70v-7q32 -136 32 -255q0 -62 -8 -118q-23 -154 -158 -154q-10 0 -22 2q-156 14 -168 178 q-2 28 -1 55q-1 126 45 201q56 90 56 112v14q-143 37 -271 37q-117 -1 -219 -31q-216 -64 -348 -184q-78 -71 -79 -162q0 -64 38 -136q92 -176 745 -226q654 -51 732 -346q27 -103 27 -192q0 -165 -95 -280q-146 -176 -408 -246q-153 -41 -337 -41q-131 1 -277 21 q-350 50 -551 170.5t-228 289.5zM1306 1513q-8 -44 -7 -78q0 -102 71 -127q84 46 84 166t-56 219q-60 -8 -92 -180z" />
<glyph unicode="T" horiz-adv-x="1595" d="M34 1725l3 49q7 119 101 119h11q74 21 702 21q260 0 616 -4l40 -11h1q32 0 43 -326l-2 -21q-5 -82 -69 -94q-57 4 -57 185q0 20 1 42v5q0 82 -63 86l-486 -4l6 -44l-4 -1546l10 -63l176 3l28 -2q43 -3 86 -83l-1 -14q-2 -29 -339 -29q-131 0 -313 4q-100 11 -100 66 q0 44 108 53l208 -3v7q26 1018 26 1349q0 107 -3 142q-4 53 -4 87q0 58 12 60q-181 11 -307 11q-284 0 -287 -55q2 -41 2 -76q0 -193 -51 -192h-3l-53 -5q-37 10 -38 283z" />
<glyph unicode="U" horiz-adv-x="1946" d="M-11 1839l5 46q3 29 218 29q119 0 303 -9l24 -21v-14q-3 -56 -80 -66l-142 6l-8 -28q-2 -57 -2 -124q0 -298 43 -794q53 -608 352 -696q159 -47 322 -47q144 0 290 36q312 79 320 737q1 92 1 176q0 515 -40 715l-231 -3q-41 16 -41 50q0 10 3 20q13 43 128 44q16 0 34 -1 l357 -9q29 -11 41 -37l-3 -49q2 -3 2 -6q0 -22 -108 -24l-48 1l3 -69q6 -219 7 -407q-1 -681 -81 -948q-102 -341 -710 -347h-12q-597 0 -675 590q-57 432 -57 881q0 171 8 344l-70 -4l-112 5q-36 2 -41 23z" />
<glyph unicode="V" horiz-adv-x="1876" d="M-4 1809v14q5 56 49 56q195 5 326 5q226 0 256 -16v-7q0 -57 -84 -84l-77 -11v-7q273 -620 510 -1511q12 2 52 -18q38 -19 37 -123v-11q-2 -114 -75 -114q-59 0 -183 483t-426 1127l-77 168h-224q-56 0 -84 49zM958 198q184 522 269 716.5t456.5 816t651.5 703.5 q150 44 269 44q104 0 186 -34q174 -71 173 -282q-1 -213 -175 -221h-16q-159 -1 -176 147q-3 22 -3 43q0 117 92 141q56 -5 56 -49q7 -9 7 -21q0 -28 -40 -67v-21q38 -63 84 -63h14q37 0 37 115q0 21 -1 45q-7 141 -252 141q-34 0 -72 -3q-316 -22 -658.5 -538t-573 -1053.5 t-230.5 -573.5z" />
<glyph unicode="W" horiz-adv-x="2535" d="M11 1858v21q0 31 389 31q56 0 119 -1q21 -26 24 -72q2 -5 2 -9q0 -45 -159 -45l490 -1554l14 -14q48 0 392 933q0 68 -139 348t-141 364q0 63 175 63l374 4q66 -14 86 -63v-14l-229 -711q335 -660 406 -847h7q112 503 318 992t375.5 737t350.5 396.5t450 158.5q17 1 33 0 q242 0 329 -132q58 -89 59 -183q0 -57 -22 -115q-49 -138 -206 -138q-20 0 -40 2q-192 20 -216 172q-4 28 -4 53q0 110 86 155l42 7q77 0 77 -126q-5 -35 -21 -35h-7l-56 35q-22 -8 -22 -43q0 -20 7 -48q18 -71 126 -70h22q127 7 127 158q0 152 -214 200q-48 11 -98 10 q-172 0 -370 -126q-255 -163 -540 -739t-383 -934t-98 -471q-11 -182 -91 -182h-5q-86 6 -101.5 79t-376.5 908q-18 -10 -157 -376.5t-277 -652.5q-26 -21 -49 -21q-84 39 -84 161q-471 1545 -511 1631l-8 15h-8q-54 0 -147 12q-100 13 -100 76zM1101 1812l251 -547 q16 0 169 556q-99 4 -176 4h-189z" />
<glyph unicode="X" horiz-adv-x="1849" d="M17 48q0 58 154 70l7 7q200 205 606 751q-75 95 -522 933q-64 -9 -110 -9q-105 0 -117 45l12 53q16 22 165 22q85 0 213 -7q29 1 52 1q88 0 88 -15q10 -29 10 -49q0 -49 -60 -49h-5l-120 7l481 -850h7q0 27 633 852l-69 -3h-145q-53 18 -53 53q0 23 23 53l61 10h105 q83 -1 220 3q15 0 29 1q108 0 108 -25q-13 -92 -62 -92l-91 -7l-694 -932l500 -761l195 -2q14 -3 26 -33.5t2 -59.5q-7 -21 -263 -21q-106 0 -256 4q-21 37 -21 64q0 30 25 49h35l119 -7q0 39 -444 681q-106 -78 -494 -632l-17 -42l158 -6q36 -30 36 -59q0 -22 -20 -43 l-382 -9h-21q-106 0 -106 43q0 5 2 11z" />
<glyph unicode="Y" horiz-adv-x="1701" d="M146 1829v28q19 63 203 63h301q77 0 87 -71q7 -12 7 -23q0 -53 -190 -53h-23l423 -782q139 498 405 829t549 489q269 150 528 150h26q271 -8 271 -226t-180 -218h-105q-48 24 -48 57q0 10 5 22q20 47 78 47h21l42 -28q80 0 98 105q0 131 -179 131q-68 0 -163 -19 q-341 -69 -607.5 -339t-395.5 -496t-216 -463q-66 -180 -66 -608q0 -138 7 -301h14l157 25q53 -13 53 -60q0 -77 -77 -77h-98h-448l-28 28q0 91 91 91l204 -4q18 3 18 177q0 80 -4 197q-12 371 -22 362q-471 887 -489 907l-123 11q-29 -6 -51 -6q-70 0 -75 55z" />
<glyph unicode="Z" horiz-adv-x="1712" d="M11 56v14q0 32 570.5 822t594.5 885l-3 3h-35q-415 14 -658 14q-347 0 -347 -28q0 -88 10 -242q-20 -16 -45 -16q-21 0 -46 11q-21 60 -21 145q0 79 18 179l1 63h90h1089l35 7q91 -28 91 -56l-1161 -1735q-9 22 446 22q320 0 869 -11l7 253v28q31 35 84 35q44 0 44 -108 q0 -29 -3 -66q-6 -72 -6 -124q0 -72 12 -104q-28 -35 -112 -35q-1021 -12 -1412 -12h-7q-105 0 -105 56z" />
<glyph unicode="[" horiz-adv-x="2193" d="M-4 1809v14q5 56 49 56q534 15 582 -11v-7q0 -57 -84 -84l-77 -11v-7q273 -620 510 -1511q12 2 62 208t227.5 817.5t535 628t377.5 -240.5t-158.5 -270.5t-179.5 144.5t91 158q51 -42 28 -84t-8 -91t61 -49h14q79 41 73.5 190.5t-279.5 146.5t-471.5 -608.5 t-239.5 -796.5t-44 -305t-75 -114q-59 0 -183 483t-426 1127l-77 168h-224q-56 0 -84 49z" />
<glyph unicode="\" horiz-adv-x="1966" d="M146 1829v28q19 63 203 63h301q77 0 87 -71q46 -80 -206 -76l423 -782q177 479 307.5 723.5t361.5 269.5t283 -184t-166 -260h-105q-63 31 -43 78.5t78 47.5h21l42 -28q80 0 98 105q-66 186 -246 119t-293 -358.5t-204.5 -500.5t-63.5 -880h14l157 25q53 -13 53 -60 q0 -77 -77 -77h-98h-448l-28 28q0 91 91 91l204 -4q27 4 14.5 374.5t-22.5 361.5q-471 887 -489 907l-123 11q-120 -23 -126 49z" />
<glyph unicode="]" horiz-adv-x="2939" d="M11 1858v21q0 35 508 30q21 -26 24 -72q17 -54 -157 -54l490 -1554l14 -14q48 0 392 933q0 68 -139 348t-141 364q0 63 175 63l374 4q66 -14 86 -63v-14l-229 -711q335 -660 406 -847h7q112 503 245 1017t381 596t378.5 -78t72.5 -329.5t-249.5 -173.5t-215 148.5 t81.5 207.5l42 7q77 0 77 -126q-5 -35 -21 -35h-7l-56 35q-35 -13 -15 -90.5t147.5 -46.5t141 196t-211 212.5t-369.5 -355.5t-231 -779.5t-86 -489.5q-11 -188 -96.5 -181.5t-101 79t-376.5 907.5q-18 -10 -157 -376.5t-277 -652.5q-26 -21 -49 -21q-84 39 -84 161 q-471 1545 -511 1631l-8 15q-55 -1 -155 12t-100 76zM1101 1812l251 -547q16 0 169 556q-99 4 -176 4h-189z" />
<glyph unicode="^" horiz-adv-x="3162" d="M58 405q20 148 237.5 178.5t244 -148.5t-181.5 -180l-36 11v42q0 56 98 56l28 21l7 7v21q0 91 -154 60.5t-135 -155.5t121 -186.5t261 -16.5t229 249v14l-29 1405l-56 7q-268 -3 -268 48l5 48q-5 8 180 22.5t379 -10.5q22 -17 691 -1186l7 -7h7q105 205 442.5 673 t348.5 468q378 36 604 -4l2 -47l-14 -37l-277 -3l17 -1455l14 -192q175 13 195 -30q15 -61 -51 -74l-458 -10l-14 49q3 26 45 50h28l104 19q31 -1 31 22q3 1614 -51 1614l-152 -12q-744 -1129 -758 -1129q137 -272 154 -329l19 -106q-5 -34 -252.5 -35.5t-263.5 22.5 q0 64 80.5 221t115.5 241q-663 1183 -705 1168h-14l-9 -27l8 -1265q-2 -342 -174 -443.5t-348.5 -62t-249 152.5t-52.5 261zM1550 253l234 -3v7l-99 259h-7z" />
<glyph unicode="_" horiz-adv-x="2530" d="M15 304q26 232 195 253.5t202.5 -123t-44.5 -204.5l-14 1q-53 2 -68 38l1 14l46 89v7q3 68 -84 83.5t-119 -148t145.5 -208.5t309 87t159.5 544t-0.5 738.5t-49.5 327.5l-438 19q-21 125 30 127l506 9l21 -1q104 -16 209 -306t819 -1396h7v14h7q-68 1214 48.5 1443 t336.5 230t252 -196.5t-116.5 -242.5t-200 59t-2.5 132t68 -34.5t93.5 -48.5t64 113t-154.5 105.5t-253 -196.5t-45 -1361q-4 -108 8 -188.5t-80 -68.5q-123 -1 -1056 1759q111 -1124 8 -1410.5t-278.5 -357.5t-367 -2.5t-165.5 300.5z" />
<glyph unicode="`" horiz-adv-x="1749" d="M105.5 458.5q-74.5 289.5 123.5 506t466.5 113t269.5 -354.5t-209.5 -294t-265.5 105.5t43 222.5t216 36q28 0 35 -53.5t-101 -43t-110 -82t135.5 -87t134.5 207.5t-246.5 242.5t-333 -175.5t-30 -369t238.5 -241t437.5 -55.5t373.5 249.5t88.5 801t-64.5 584h-14 q-102 0 -193 2.5t-74 91.5q9 31 92 31l541 -1q35 -18 35 -56q0 -68 -115 -68t-110 -3q-8 -165 30 -692.5t-118.5 -767t-454 -280.5t-522 50t-299 380.5z" />
<glyph unicode="a" horiz-adv-x="1593" d="M41 446q-10 80 -10 153q1 275 139 465q176 240 418 277q70 11 133 11q157 0 277 -67q2 -13 82 -40q12 -895 18 -951l2 -14q16 -74 90 -130q41 -31 77 -31q30 0 57 21q45 35 45 115q-1 27 -5 57q-4 26 -3 46q0 82 60 97l28 3h3q31 0 49 -93q2 -32 2 -60q-1 -227 -147 -276 q-63 -21 -114 -21q-84 0 -136 54q-84 88 -89 138q-185 -210 -447 -210q-64 0 -133 12q-349 66 -396 444zM156 542q22 -306 194 -382q120 -53 236 -52q49 0 96 9q160 32 266 195q9 1 9 183t-9 545l-6 56q-16 144 -227 144h-13q-222 -4 -395 -198q-153 -171 -153 -431 q-1 -34 2 -69z" />
<glyph unicode="b" horiz-adv-x="1501" d="M21 275v5q0 62 46 102h21l28 -20q18 -226 96 -230h4q75 0 106 161q18 93 18 370q0 217 -11 547l1 244q-1 26 -1 49q0 196 38 196l35 2l30 -112l13 -457q85 106 296 156q48 11 97 12q163 0 329 -128q216 -167 216 -518q-1 -346 -155 -512q-143 -154 -394 -153q-24 0 -46 1 q-284 15 -373 215q1 -58 -45 -127q-44 -66 -190 -66h-12q-147 3 -148 230q0 16 1 33zM31 1821q3 14 35 28l374 4l8 -301l-9 -154l-15 -14l-84 2l-29 329l1 28l-150 -8l-84 1q-48 29 -47 85zM461 422q47 -232 177 -286q106 -43 234 -43q30 1 61 3q165 12 257 159 q86 137 86 381v35q-6 269 -160 401q-122 106 -261 107q-35 0 -71 -7q-180 -33 -296 -132q-34 -21 -34 -308q0 -128 7 -310z" />
<glyph unicode="c" horiz-adv-x="1265" d="M6 724q24 268 164 453t394 187q5 0 11 1q247 0 363 -117q72 -87 71 -132q1 -15 -7 -26q-9 -12 -28 -12q-46 0 -150 77q-106 78 -252 78q-54 0 -114 -11q-220 -40 -304 -386q-27 -111 -28 -206q0 -200 124 -328q171 -177 353 -177q11 1 22 1q193 12 297 92q63 49 106 49 q28 0 47 -21q12 -14 12 -30q0 -48 -104 -122q-121 -85 -344 -85q-34 0 -70 2q-274 15 -431 231q-136 186 -136 411q1 35 4 71zM859 1005q-3 2 -3 7q0 32 108 189l46 70q25 12 45 12q22 0 38 -14q10 -10 4 -45l-126 -215q-20 -31 -55 -31q-19 0 -43 10zM949 318q-1 10 -1 19 q0 41 29 59q3 2 8 2q13 0 36 -13l164 -187q16 -20 16 -41q0 -28 -27 -59l-21 -8q-1 -1 -3 -1q-25 0 -149 163z" />
<glyph unicode="d" horiz-adv-x="1472" d="M236 1172q166 128 330 128q48 0 96 -12q210 -50 297 -156l12 457l30 112l35 -2q38 0 38 -204v-41v-244q-11 -330 -11 -547q0 -278 18 -370q31 -161 106 -161h3q78 4 97 230l29 20h21q47 -42 46 -107q1 -16 1 -30q0 -230 -148 -233h-13q-147 0 -191 66q-46 69 -44 127 q-90 -200 -374 -215q-23 -1 -45 -1q-251 -1 -395 153q-155 166 -154 512q-1 351 216 518zM128 671v-37q0 -242 86 -379q92 -147 256 -159q31 -2 62 -3q128 -1 234 43q130 54 177 286q7 182 7 310q0 286 -34 308q-117 99 -297 132q-36 7 -71 7q-140 -1 -261 -107 q-152 -132 -159 -401zM955 1552l9 301l373 -4q33 -14 36 -28q1 -56 -48 -85l-84 -1l-149 8v-28l-29 -329l-84 -2l-14 14z" />
<glyph unicode="e" horiz-adv-x="1045" d="M9 681q32 399 164 571q115 150 305 149q28 0 57 -3q231 -25 241 -312v-21q0 -271 -259 -433q-269 -168 -382 -168v-7q24 -183 142 -279q94 -77 211 -77q29 0 59 5q152 24 229.5 127.5t113.5 209t83 105.5q35 0 35 -63v-7q-146 -444 -440 -476q-49 -5 -94 -6 q-222 0 -332 130q-132 156 -133 555zM135 579q211 46 376 179q157 127 157 321v19q-8 197 -188 197q-8 -1 -17 -1q-197 -10 -285 -324q-58 -209 -58 -313q0 -53 15 -78z" />
<glyph unicode="f" horiz-adv-x="908" d="M-167 -500q-6 38 -6 71q0 153 124 211q63 30 105 30q58 0 74 -58q9 -30 9 -64q0 -77 -44 -172q-18 -11 -34 -11q-23 0 -39 25q-10 16 -10 41q0 41 27 106l-7 7h-7q-75 0 -93 -93q-4 -23 -4 -44q0 -65 42 -115q34 -41 93 -41q36 0 81 15q119 39 150.5 143t31.5 319 l-35 1184l-201 6h-28q-38 0 -56 35q0 85 217 85q34 0 72 -2l10 37q0 31 -8 205q-1 18 -1 37q0 153 58 288q66 152 236 171q39 4 74 4q120 0 205 -48q110 -64 123 -206q3 -28 3 -51q0 -96 -45 -111h-14l-35 35v21q-18 254 -270 254h-5q-224 -3 -224 -432q0 -60 4 -129l11 -70 l261 2q37 0 56 -35v-42q0 -42 -214 -42q-49 0 -110 2l35 -1205q0 -361 -107.5 -467.5t-289.5 -106.5t-215 211z" />
<glyph unicode="g" horiz-adv-x="1152" d="M30 522q-2 34 -2 67q0 146 52 291q65 176 239 323.5t429 162.5q37 3 70 3q186 0 198 -76q35 -85 42 -926q1 -49 1 -96q0 -757 -114 -959q-121 -213 -463 -216q-6 -1 -11 -1q-332 0 -347 230v27q0 210 212 276q64 20 111 20q121 0 135 -132q2 -23 2 -44q0 -145 -112 -190 h-7q-35 18 -35 56v7q0 58 32 115q7 14 7 26q0 34 -74 41q-162 -24 -162 -147q0 -10 1 -20q14 -142 222 -160q21 -2 42 -2q180 0 314 140q132 139 132 598q0 58 -2 122l-7 301q-164 -238 -468 -261q-30 -2 -58 -2q-255 0 -334 189q-30 57 -45 237zM147 624q-1 -22 -1 -43 q0 -226 90 -318q62 -64 178 -64q66 0 148 21q230 56 342 352l-2 510q4 35 4 62q0 73 -31 76q-56 6 -107 6q-259 0 -420 -154q-192 -186 -201 -448z" />
<glyph unicode="h" horiz-adv-x="1448" d="M-11 1761q0 44 170 44q33 0 72 -2l49 7q49 0 49 -147v-28l-14 -322l7 -7h7q121 114 326 115q17 1 35 -1q230 -10 324 -118q94 -106 110 -404q15 -288 14 -523l-1 -19q1 -237 77 -251q8 -1 15 -2q63 0 79 111l-12 30q0 81 52 93q4 1 8 1q45 0 49 -132v-13q1 -133 -79 -175 q-42 -22 -85.5 -22t-88.5 22q-90 44 -101 284.5t-23 625.5q-12 382 -307 382h-5q-299 -4 -363 -181q-27 -2 -27 -213q0 -233 33 -722q0 -70 56 -70l107 -3h21l14 -70q0 -43 -162 -43q-49 0 -113 4q-70 0 -70 70q21 22 21 476q0 298 -9 783l7 189q0 161 -42 161l-158 7 q-33 0 -42 63z" />
<glyph unicode="i" horiz-adv-x="706" d="M38 1288l1 14q4 94 121 94q16 0 34 -2q150 -14 153 -65l6 -126q-18 -372 -18 -617q0 -472 67 -473q1 1 3 1q97 12 97 136q0 12 -1 24q-1 20 -1 37q0 107 53 106h3q51 -3 51 -128q-1 -35 -5 -81q-18 -204 -160 -212h-16q-129 0 -172 120q-24 67 -24 387q0 284 19 769 q-141 -6 -176 -6h-8l-7 1zM66 1650v49q35 154 140 154q155 0 182 -189q0 -84 -133 -98q-25 0 -98 84v-14l14 -77l-35 -14q-70 35 -70 105zM262 1692l28 -14h7q-24 49 -35 49v-35z" />
<glyph unicode="j" horiz-adv-x="663" d="M-406 -524q-15 79 -15 143q0 100 36 163q53 94 195 94q15 0 30 -1q167 -11 194 -169q4 -21 4 -41q0 -121 -151 -146h-7q-49 0 -49 49v21l93 28l7 35v70q0 56 -86 56h-6q-92 -2 -133 -78q-23 -43 -23 -99q0 -44 14 -95q32 -119 256 -130q14 -1 28 -1q203 0 305 152 q98 148 98 703v112q-11 652 -18 920l-224 -5q-47 10 -47 44q0 9 3 19v21q0 35 303 51h14q63 0 63 -105q25 -518 25 -893q0 -802 -116 -951q-154 -197 -408 -197q-27 0 -55 2q-293 24 -330 228zM130 1636v49q35 154 140 154q155 0 182 -189q0 -84 -133 -98q-25 0 -98 84v-14 l14 -77l-35 -14q-70 35 -70 105zM326 1678l28 -14h7q-24 49 -35 49v-35z" />
<glyph unicode="k" horiz-adv-x="1421" d="M-146 1735q17 36 55 37l239 28l14 1q70 -14 73 -95l11 -91l-20 -405q185 203 492 203h2q308 -1 398 -285q17 -54 18 -106q0 -219 -305 -395q120 -72 123.5 -249t113.5 -205q20 -5 38 -5q81 0 121 105q-1 24 -1 45q0 193 66 193q8 0 17 -3q36 -33 38 -90q1 -18 1 -34 q0 -217 -120 -290q-79 -48 -153 -48q-47 0 -91 20q-114 50 -128 170.5t-21.5 225.5t-129.5 122l-358 -175q-120 -65 -122 -89l5 -135q2 -59 82 -59h11h12q83 0 102 -38v-14q-7 -69 -123 -75q-189 8 -192 84v7q10 303 10 656q0 220 -4 460l17 475h-7q-46 7 -126 7 q-44 0 -98 -2l-44 8l-15 13zM226 461h7l303 144q418 177 476 295q28 57 28 117q0 66 -32 137q-62 136 -322 152q-19 1 -37 2q-233 0 -377 -194q-37 -62 -37 -144v-12l3 -70q2 -40 2 -86q0 -139 -14 -341z" />
<glyph unicode="l" horiz-adv-x="679" d="M5 1697l1 14q4 94 121 94q15 0 33 -2q150 -14 154 -65l6 -126q-29 -545 -29 -895q0 -624 93 -625h2q139 10 139 150q0 9 -1 20q-1 21 -1 40q0 116 53 115h3q51 -3 51 -128q0 -35 -4 -81q-18 -204 -192 -212h-19q-157 0 -199 120q-22 64 -22 455t22 1110q-141 -6 -176 -6 h-8l-7 1z" />
<glyph unicode="m" horiz-adv-x="2224" d="M-7 1338v7q0 40 357 56q45 0 56 -63v-98q142 110 270 138q36 8 71 7q90 0 174 -51q117 -71 117 -129h21q186 177 397 177h9q216 -4 300 -210q67 -164 67 -467q0 -79 -4 -165q-4 -81 -5 -145q0 -277 74 -277h1q92 2 121 150v49q0 112 56 112t56 -49q-5 -375 -221 -382h-8 q-205 0 -205 344v10l28 527q-10 257 -129 337q-64 43 -149 42q-72 0 -158 -30q-188 -68 -188 -142l10 -697q-6 -123 -6 -191q0 -73 7 -79l146 4q93 -21 93 -42v-14q0 -68 -201 -68q-19 0 -40 1h-7q-98 0 -108.5 52.5t-10.5 143.5l-2 890q-104 181 -250 181q-12 1 -24 -1 q-162 -16 -232 -103.5t-70 -125.5l-23 -903q0 -11 63 -11q70 0 188 -20q11 -18 11 -64v-7q-1 -36 -162 -36q-77 0 -191 8l-14 21l-7 266q22 653 22 878q0 120 -6 120l-35 14l-189 -21q-50 20 -70 56z" />
<glyph unicode="n" horiz-adv-x="1411" d="M-32 1333v7q11 28 49 28l181 16q9 1 17 1q74 0 112 -94q124 85 300 85q49 0 103 -6q244 -30 292 -241q33 -140 33 -363q0 -114 -8 -248q-5 -77 -5 -139q0 -263 86 -270q5 0 10 -1q96 0 116 157q-2 31 -2 57q0 138 50 140q1 0 1 1q46 0 45 -140q0 -35 -2 -79 q-14 -222 -228 -234h-9q-178 0 -177 375q0 53 3 113q11 193 11 328q0 216 -28 290q-46 120 -219 153q-32 6 -64 6q-139 0 -270 -117q-14 -6 -14 -292q1 -60 1 -130v-113q0 -327 -18 -487l7 -21h28q49 0 161 -8q23 -35 23 -61q0 -14 -7 -25q-21 -17 -132 -17q-68 0 -170 6 q-8 17 -8 126q10 75 10 484q0 230 -3 566q-18 91 -28 91l-191 -21q-56 28 -56 77z" />
<glyph unicode="o" d="M36 654q0 5 -1 11q-1 231 103 435q106 208 402 256q51 8 99 8q232 0 407 -184q200 -211 200 -517v-33q-12 -328 -226 -476q-188 -130 -385 -130q-27 0 -55 2q-227 20 -384.5 205t-159.5 423zM144 671q10 -217 132 -355q121 -138 362 -156q27 -2 52 -2q204 0 321 134 q132 150 137 334v17q0 175 -93 340q-99 173 -261 226q-100 33 -196 33q-60 0 -118 -13q-152 -33 -248 -187q-89 -140 -90 -333z" />
<glyph unicode="p" horiz-adv-x="1518" d="M-39 1088q71 193 254 193h13l56 -3q128 -5 128 -97v-6q25 -25 25 -77v-8q90 155 319 255q73 35 170 35q31 0 65 -4q138 -15 300 -190q145 -156 145 -445q0 -34 -2 -70q-19 -341 -188 -491.5t-520 -153.5h-14q-164 7 -248 115l-8 -495l-32 -111l-35 2l-33 246l3 362 q11 190 11 350q0 428 -78 643q-17 22 -41 23l-63 2h-3q-75 0 -130 -163l-29 -20l-21 1q-44 39 -44 99v8zM116 -604q0 56 49 84h84l84 14l35 357h84l14 -14l2 -375l-9 81v-56h7q294 -11 294 -35l7 -21q-19 -84 -77 -84l-231 35l-308 -14q-32 14 -35 28zM471 872 q1 -528 38 -640q68 -67 159 -71q47 -3 91 -3q257 0 389 110q155 130 178 392q4 49 4 95q0 196 -80 320q-99 153 -266 178q-31 5 -61 5q-132 0 -251 -89q-145 -109 -201 -297z" />
<glyph unicode="q" horiz-adv-x="1519" d="M8 554q-4 44 -4 87q0 297 156 489q179 218 360 253q67 13 129 13q107 0 201 -38q148 -61 238 -216v6q0 55 54 120q56 67 167 72h6q106 0 141 -186v-8q0 -59 -45 -99l-21 -1l-29 20q-16 147 -71 147q-4 0 -8 -1q-61 -10 -108 -164q-27 -84 -27 -339q0 -210 18 -535l3 -395 q2 -47 2 -85q0 -160 -34 -161l-35 -2l-32 111l-9 528q-83 -108 -310 -157q-67 -15 -136 -15q-164 0 -336 82q-245 116 -270 474zM140 517q56 -304 263 -359q113 -31 215 -31q84 0 160 21q169 46 238 113q33 103 33 544v76q-51 231 -181 327q-95 71 -227 71q-48 0 -102 -9 q-199 -36 -327 -242q-88 -144 -88 -336q0 -83 16 -175zM786 -584q10 68 229 68q20 0 43 -1h7l5 210l-12 140l14 14h84l35 -329v-28l84 -14h84q45 -26 45 -78v-9q-3 -48 -384 -48q-84 0 -186 2q-49 0 -49 53q0 9 1 20z" />
<glyph unicode="r" horiz-adv-x="1077" d="M-2 1282q27 70 84 70q44 7 84 7q168 0 266 -119h7q89 138 283 142q5 0 9 1q187 0 296 -178v-14q0 -54 -35 -70h-28q-16 -1 -88 101q-38 54 -124 54q-77 0 -194 -43q-56 -50 -80 -160q-11 -49 -12 -242q0 -236 17 -687l196 -14l58 -10l-30 -18v-14v-6q0 -48 -46 -48 l-145 -38q-14 -1 -26 -1q-131 0 -140 86l14 196l-16 711q0 245 -175 245t-175 49zM115 66q0 34 48 61h84l98 14l12 258l100 -209v-56h7q294 -11 294 -35l7 -21q-16 -75 -74 -75l-222 -3l-320 15q-34 15 -34 51z" />
<glyph unicode="s" horiz-adv-x="1189" d="M44 1130q47 224 315 250q36 3 71 4q222 0 382 -140q-1 11 -1 21q0 85 53 89q8 -11 81 -376q1 -17 -55 -27q-4 -1 -8 -1q-51 0 -91 133q-137 197 -360 197h-11q-230 -4 -266 -174q-5 -26 -5 -50q0 -130 169 -181q200 -61 484.5 -170.5t327.5 -282.5q12 -50 13 -96 q1 -114 -75 -204q-105 -126 -507 -125h-6q-407 1 -496 207q-29 68 -29 125q0 116 122 186q50 29 92 28q113 0 177 -203q2 -12 2 -22q0 -42 -44 -43h-1q-54 0 -57 76q0 81 -70 81q-7 0 -17 -1q-87 -11 -87 -119q-1 -112 123 -158q122 -46 290 -56q28 -2 56 -2q140 0 276 44 q141 45 141 165q0 20 -4 42q-27 155 -175 223t-350 120q-201 52 -354 134q-117 62 -117 209q0 44 11 97z" />
<glyph unicode="t" horiz-adv-x="807" d="M39 1332q19 38 106 38q42 0 99 -9q3 0 6 150v143q3 0 -113 0l-28 21l-7 7v21q31 49 70 49l299 -5q28 -8 28 -74q0 -21 -69 -21q-30 0 -72 4l7 -7l-8 -153l10 -119l34 -2q38 1 69 1q138 0 138 -25q11 -25 11 -44q0 -54 -91 -54h-2l-132 -5l-25 -1q-8 -490 -8 -751 q1 -236 7 -284q14 -100 108 -110q25 -3 46 -3q58 0 89 20q34 22 34 112q0 21 -2 47q-1 20 -1 36q0 87 41 86h7q52 -9 52 -143q0 -13 -1 -29q-7 -162 -79 -203q-54 -30 -152 -30q-32 -1 -70 3q-150 14 -176 136.5t-31 1115.5l-173 -1q-31 13 -31 43q0 17 10 40z" />
<glyph unicode="u" horiz-adv-x="1326" d="M1 1338q3 14 35 28l249 14q58 0 72 -70l-7 -21q0 -21 -175 -21h-46h-84q-44 25 -44 62v8zM116 1262q5 37 40.5 48t59.5 19q-5 -202 -5 -366q0 -456 37 -624q50 -228 245.5 -228t267 113.5t82.5 251.5l-17 760v8q0 123 60 125h1q61 0 71 -233q-8 -286 -8 -488 q0 -424 36 -476q46 -66 96 -67q7 0 15 2q53 10 53 125v26q-1 17 -1 33q0 104 37 104h3q46 -4 46 -160.5t-57 -198.5q-47 -34 -117 -34q-15 0 -32 2q-92 9 -155 172h-1q-17 0 -62 -49q-125 -134 -309 -134q-40 1 -83 7q-240 36 -281 346q-28 213 -28 563q0 162 6 353z M688 1342q3 14 35 28l249 14q58 0 72 -70l-7 -21q0 -21 -175 -21h-46h-84q-44 25 -44 62v8z" />
<glyph unicode="v" horiz-adv-x="1450" d="M21 1352q-6 26 200 26q92 0 227 -5l23 -13q10 -21 10 -38q0 -57 -125 -56q-25 0 -55 2l308 -814l133 -280q46 -84 46 -124q0 -37 -39 -37q-116 0 -312 577t-244 662l-1 4l-152 10q-24 21 -24 53q0 15 5 33zM747 174l117 287l259 804q-37 -4 -66 -4q-116 0 -116 57 q0 9 3 19l26 24q162 11 262 11q166 0 165 -30q6 -17 6 -32q0 -25 -17 -44l-145 -3l-9 -13q-42 -53 -204.5 -641.5t-278.5 -595.5h-4q-37 0 -37 39q0 41 39 122z" />
<glyph unicode="w" horiz-adv-x="1706" d="M12 1282q-1 6 -1 11q0 55 139 55q48 0 112 -6h21l28 -28v-7q-17 -298 -17 -512q0 -369 51 -491q76 -182 203 -183q8 -1 16 1q138 12 183.5 127t60.5 885l-3 98q-11 7 -81 7q-44 0 -86 3t-42 45q0 68 130 68q18 0 36 -1q166 -10 165 -73v-35q0 -71 3.5 -576t215.5 -546 q34 -7 63 -7q157 1 206 181q52 191 52 520q0 40 -1 81q-7 387 -92 387t-108 -68q-4 -12 -4 -22q0 -51 94 -78v-7q-4 -91 -55 -91q-21 0 -50 16q-82 45 -82 151q0 23 4 48q21 145 211 145h1q191 0 194 -440v-44q0 -405 -52 -622q-55 -228 -239 -259q-48 -8 -91 -8 q-121 0 -201 64q-110 87 -133 166q-107 -240 -295 -240q-2 1 -4 1q-191 2 -275 135q-85 133 -105 497q-8 135 -7 254q0 203 22 360l-166 9z" />
<glyph unicode="x" horiz-adv-x="1288" d="M-17 46q0 63 43 75q84 -6 144 -6q52 1 86 5q73 10 35 10v-14h21l28 7q30 -11 30 -63q0 -56 -135 -56q-157 0 -204.5 7.5t-47.5 34.5zM76 1286v14q-10 65 263 65q52 0 115 -2q74 -30 74 -54q0 -56 -160 -68l254 -417l288 410l-43 2q-91 4 -91 56q5 79 173 79 q157 0 208 -16q35 -12 37 -77q-6 -43 -125 -43q-15 0 -31 1q-9 3 -357 -528l382 -558l28 -8l98 -13q65 -20 65 -83q0 -39 -210 -39q-90 0 -218 7q-21 22 -21 42q0 13 9 25q9 36 63 36q14 0 32 -3l37 2l-338 491l-325 -473v-7q114 -12 162 -22q9 3 18 -25v-14q0 -58 -94 -63 l-275 -2q-24 9 -24 29t25 51q431 589 436 638q-23 56 -282 517l-99 3q-74 5 -74 47z" />
<glyph unicode="y" horiz-adv-x="1281" d="M-215 -419q17 147 110 205q82 52 171 52q12 0 24 -1q102 -8 159 -70q52 -57 52 -155v-17q-5 -110 -166 -156h-35q-56 23 -56 63q9 53 54 53q26 0 65 -18h7q24 0 34 98q1 6 1 12q0 81 -131 81h-14q-156 -5 -166 -196q-1 -9 -1 -17q0 -176 211 -209q46 -7 87 -7 q158 0 253 104q119 132 165 631l-5 7q0 91 -434 1228l-133 12q-25 20 -25 46q0 13 6 28q12 29 158 29q76 0 189 -8q10 3 18 3q40 0 46 -64q0 -42 -81 -42q-17 0 -38 2q-1 0 -1 -2q0 -43 362 -1034l268 1024h-87q-69 7 -69 51q0 6 1 12q10 54 73 55.5t188 1.5h189l21 -21 q4 -16 4 -30q0 -62 -85 -73l-117 -3q-320 -1126 -320 -1236q-71 -564 -227 -709q-132 -122 -311 -122q-33 0 -69 5q-223 27 -292 134q-56 85 -56 197q0 27 3 56z" />
<glyph unicode="z" horiz-adv-x="1201" d="M10 1313v7q0 56 916 58h35q28 -14 28 -35q0 -76 -378.5 -635.5t-378.5 -599.5l105 -8l680 26q35 0 40 9l-5 96q-3 80 -10 143q-1 9 -1 16q0 47 38 47h35q35 -18 35 -56v-84q5 -129 5 -204q0 -38 -1 -62q-16 -29 -94 -29q-28 0 -63 4l-701 -11h-119q-98 0 -98 42l-7 35 q5 33 41 76t722 1082l13 27l-716 -5q-3 -2 -6 -65l-5 -121q-3 -65 -29 -65h-4l-33 -5q-35 18 -35 56v21z" />
<glyph unicode="{" horiz-adv-x="1014" d="M128 969l18 24l14 1l107 -6q83 18 151 84q58 140 -68 390t-74.5 440t244.5 216q198 28 365 -133q5 -106 -91 -55q-92 107 -211 91l-41 -6q-141 -19 -171.5 -179t88.5 -403t76 -344q-83 -160 -153 -170l1 -7q93 -112 103 -183l2 -14q12 -85 -59 -235q-168 -216 -118 -420 t235.5 -206.5t247.5 76.5l21 3q14 2 34 -38q14 -101 -194 -137t-306 44t-135 269t43 322q148 210 132 322q-16 120 -140 143q-106 1 -117 83z" />
<glyph unicode="|" horiz-adv-x="696" d="M359 1979l6 3l48 -15l6 -12q15 -1734 40 -1951l-54 -13q-31 -1 -44 24q-76 1924 -2 1964z" />
<glyph unicode="}" horiz-adv-x="1014" d="M142 1971q167 161 365 133q193 -26 244.5 -216t-74.5 -440t-67 -390q67 -66 150 -84l107 6l14 -1l18 -24l-4 -28q-11 -82 -117 -83q-124 -23 -140 -143q-16 -112 132 -322q81 -133 43.5 -322t-135 -269t-306 -44t-194.5 137q20 40 34 38l21 -3q62 -79 247.5 -76.5 t235.5 206.5t-118 420q-71 150 -59 235l2 14q10 71 103 183l1 7q-70 10 -153 170q-43 101 76 344t88.5 403t-171.5 179l-41 6q-119 16 -211 -91q-96 -51 -91 55z" />
<glyph unicode="~" horiz-adv-x="1839" d="M76 884q47 335 340.5 395.5t490.5 -181.5t395.5 -242t288 87t97.5 193q0 26 -14 71t56 42t58.5 -150t-173 -256t-369 -91t-409.5 245.5t-415 173t-274 -342.5q-72 -11 -72 56z" />
<glyph unicode="&#xa1;" horiz-adv-x="679" d="M190 1848q0 84 133 98q25 0 98 -84v14l-14 77l35 14q70 -35 70 -105v-49q-35 -154 -140 -154q-155 0 -182 189zM258 112q-7 1431 47 1437.5t78 -30.5t-21 -1476q161 7 184 6h7l20 -22l-1 -14q-4 -105 -154.5 -91t-153.5 65zM281 1834q24 -49 35 -49v35l-28 14h-7z" />
<glyph unicode="&#xa2;" horiz-adv-x="1218" d="M41.5 923.5q24.5 267.5 164.5 452.5t394.5 187.5t373.5 -116.5q96 -116 63.5 -158t-178 65t-365 67t-305 -386.5t96.5 -534t375 -176t297.5 92.5t152.5 28t-92 -151.5t-414 -83.5t-431 230.5t-132.5 483zM356 -32.5q-16 41.5 411 1856.5q57 87 84 -28l-19 -124 q-352 -1754 -406 -1750t-70 45.5z" />
<glyph unicode="&#xa3;" horiz-adv-x="1248" d="M25 927q4 63 102 56q253 -10 489.5 2.5t237.5 -58t-76 -65.5l-715 -1q-28 2 -38 66zM248 123q-100 1386 71 1604t463.5 194.5t330 -227t-21.5 -307t-225.5 -92.5t-194 169t147.5 187h7q49 0 49 -49v-21l-93 -28l-7 -35v-70q0 -58 92 -56t133 78t9 194.5t-256 129.5 t-332.5 -151t-88 -694.5t27.5 -800.5l741 -25q59 -12 44 -63v-21q0 -35 -820 -21h-14q-63 0 -63 105z" />
<glyph unicode="&#xa4;" horiz-adv-x="1014" />
<glyph unicode="&#xa5;" horiz-adv-x="1262" />
<glyph unicode="&#xa6;" horiz-adv-x="481" d="M229 1069l1 598q-5 77 65 76t58 -178.5t-2 -431.5q6 -97 -56 -102q-64 10 -66 38zM234 163l1 598q-5 77 65 76t58 -178.5t-2 -431.5q6 -97 -56 -102q-64 10 -66 38z" />
<glyph unicode="&#xa7;" horiz-adv-x="1254" d="M60 1626.5q47 224.5 315 249.5t453 -136q-7 106 52 110q8 -11 81 -376q0 -17 -55.5 -27t-98.5 132q-140 201 -370.5 196.5t-266.5 -174t164 -230.5t484.5 -170.5t327.5 -282.5t-62.5 -299.5t-512.5 -125.5t-496 207t92.5 311t269.5 -175q13 -64 -42 -65t-58 76 q0 91 -87.5 80t-86.5 -121.5t123.5 -156t289.5 -56t331.5 42t137.5 207.5t-175 223t-349.5 120.5t-354.5 134t-106 306zM71 1109.5q47 224.5 315 249.5t453 -136q-7 106 52 110q8 -11 81 -376q0 -17 -55.5 -27t-98.5 132q-140 201 -370.5 196.5t-266.5 -174t164 -230.5 t484.5 -170.5t327.5 -282.5t-62.5 -299.5t-512.5 -125.5t-496 207t92.5 311t269.5 -175q13 -64 -42 -65t-58 76q0 91 -87.5 80t-86.5 -121.5t123.5 -156t289.5 -56t331.5 42t137.5 207.5t-175 223t-349.5 120.5t-354.5 134t-106 306z" />
<glyph unicode="&#xa8;" horiz-adv-x="752" d="M49 2072.5q14 107.5 96 107.5q123 0 133.5 -107.5t-94.5 -118.5q-149 11 -135 118.5zM49 2072.5q14 107.5 96 107.5q123 0 133.5 -107.5t-94.5 -118.5q-149 11 -135 118.5zM445 2060q14 108 96 108q123 0 133.5 -108t-94.5 -119q-149 11 -135 119z" />
<glyph unicode="&#xa9;" horiz-adv-x="1674" />
<glyph unicode="&#xaa;" horiz-adv-x="648" />
<glyph unicode="&#xab;" horiz-adv-x="1642" d="M26 656q61 132 313.5 276.5t337.5 192.5l4 1q129 83 159 18t-91 -112l-562 -369q-161 -88 -161 -7zM27 655q-5 81 161 3l624 -392q120 -87 -1 -118l-14 9q-53 16 -408.5 199.5t-361.5 298.5zM706 671q61 132 313.5 276.5t337.5 192.5l4 1q129 83 159 18t-91 -112 l-562 -369q-161 -88 -161 -7zM707 670q-5 81 161 3l624 -392q120 -87 -1 -118l-14 9q-53 16 -408.5 199.5t-361.5 298.5z" />
<glyph unicode="&#xac;" horiz-adv-x="1014" />
<glyph unicode="&#xad;" horiz-adv-x="950" d="M56 1060q4 63 102 56q253 -10 489.5 2.5t237.5 -58t-76 -65.5l-715 -1q-28 2 -38 66z" />
<glyph unicode="&#xae;" horiz-adv-x="1674" />
<glyph unicode="&#xaf;" horiz-adv-x="950" d="M71 2114q4 63 102 56q253 -10 489.5 2.5t237.5 -58t-76 -65.5l-715 -1q-28 2 -38 66z" />
<glyph unicode="&#xb0;" horiz-adv-x="674" d="M139.5 1721q46.5 140 233 142t201 -180.5t-122.5 -245t-247.5 40.5t-64 243zM223.5 1671.5q-15.5 -103.5 105 -145t146 100t-105 145t-146 -100z" />
<glyph unicode="&#xb1;" d="M257 140q4 63 102 56q253 -10 489.5 2.5t237.5 -58t-76 -65.5l-715 -1q-28 2 -38 66zM257 798q4 63 102 56q253 -10 489.5 2.5t237.5 -58t-76 -65.5l-715 -1q-28 2 -38 66zM610.5 972.5q-12.5 236.5 58 237.5t65.5 -76l1 -715q-2 -28 -66 -38q-63 4 -56 102 q10 253 -2.5 489.5z" />
<glyph unicode="&#xb2;" horiz-adv-x="1014" />
<glyph unicode="&#xb3;" horiz-adv-x="1014" />
<glyph unicode="&#xb4;" horiz-adv-x="470" d="M158 1990q-17 27 33 49.5t128.5 94t203.5 194.5l18 12q43 10 65 -25l15 -24q-58 -64 -201 -225t-254 -88z" />
<glyph unicode="&#xb5;" horiz-adv-x="1180" />
<glyph unicode="&#xb6;" horiz-adv-x="1024" />
<glyph unicode="&#xb7;" horiz-adv-x="508" d="M128.5 870q15.5 119 106.5 119q135 0 147 -119t-104 -131q-165 12 -149.5 131z" />
<glyph unicode="&#xb8;" horiz-adv-x="877" d="M165.5 -223.5q-25.5 154.5 49.5 142t50 -49t29.5 -102.5t123 -37t92.5 84.5t24 270.5l119 -7q15 -264 -92.5 -370.5t-238.5 -96t-156.5 165z" />
<glyph unicode="&#xb9;" horiz-adv-x="1014" />
<glyph unicode="&#xba;" horiz-adv-x="718" />
<glyph unicode="&#xbb;" horiz-adv-x="1520" d="M58 1159q30 65 159 -18l4 -1q85 -48 337.5 -192.5t313.5 -276.5q0 -81 -161 7l-562 369q-121 47 -91 112zM86 281l624 392q166 78 161 -3q-6 -115 -361.5 -298.5t-408.5 -199.5l-14 -9q-121 31 -1 118zM636 1159q30 65 159 -18l4 -1q85 -48 337.5 -192.5t313.5 -276.5 q0 -81 -161 7l-562 369q-121 47 -91 112zM664 281l624 392q166 78 161 -3q-6 -115 -361.5 -298.5t-408.5 -199.5l-14 -9q-121 31 -1 118z" />
<glyph unicode="&#xbc;" horiz-adv-x="1708" />
<glyph unicode="&#xbd;" horiz-adv-x="1964" />
<glyph unicode="&#xbe;" horiz-adv-x="1708" />
<glyph unicode="&#xbf;" horiz-adv-x="2206" d="M243.5 620q78.5 295 731.5 345.5t735.5 163.5t-50 234t-24.5 143.5t193 -159t-2 -298.5t-480.5 -161t-623.5 -89.5t-319.5 -149t-45.5 -288t269.5 -285.5t518 -97t579.5 144t251 335.5t-161 186t-125 -109.5v-21q91 -148 91 -168v-7q-5 -21 -49 -35q-86 0 -140 252 q28 203 197.5 203t259.5 -124t63 -293t-228 -290t-551.5 -170.5t-613 20t-408.5 246.5t-67.5 472zM1513 1818q0 84 133 98q25 0 98 -84v14l-14 77l35 14q70 -35 70 -105v-49q-35 -154 -140 -154q-155 0 -182 189zM1604 1804q24 -49 35 -49v35l-28 14h-7z" />
<glyph unicode="&#xc0;" horiz-adv-x="2513" d="M23 1283q-85 279 109 470.5t436 187t1403 -12.5q122 0 140 35h14q63 -47 63 -91q-21 -52 -21 -105l70 -1547q0 -105 14 -105q235 12 224 -63v-14q0 -33 -276.5 -41.5t-276.5 13.5q-4 77 39 77l140 12q16 3 17 107q-16 511 -49 511h-7q-1095 -3 -1158 -7 q-96 -155 -108.5 -494t147 -519t380.5 -147t202.5 253t-203 208t-184.5 -120v-42q0 -84 112 -84q63 6 63 21q-83 0 -126 49v28q25 42 63 42q206 10 224 -126q-55 -148 -263 -124t-193.5 201.5t146 239.5t298 1.5t153 -357t-286.5 -304.5t-453 156t-179 617t180 740.5 t621 844.5l5 29l-7 7h-84q-961 50 -1110 -65t-186 -257t42.5 -258t263.5 -101.5t158.5 159t-98.5 136t-57 -61.5q5 -115 -39.5 -120.5t-58.5 29.5t-14 119v7q45 161 175 170.5t188 -248.5t-254.5 -296.5t-397.5 240.5zM932 836h7q1144 -21 1134 9l-2 967l-16 -3l-383 -14 q-24 14 -740 -959zM1202 2404l15 24q23 35 66 25l18 -12q124 -123 202.5 -194.5t129 -94t32.5 -49.5l-7 -12q-112 -73 -255 88t-201 225z" />
<glyph unicode="&#xc1;" horiz-adv-x="2513" d="M23 1283q-85 279 109 470.5t436 187t1403 -12.5q122 0 140 35h14q63 -47 63 -91q-21 -52 -21 -105l70 -1547q0 -105 14 -105q235 12 224 -63v-14q0 -33 -276.5 -41.5t-276.5 13.5q-4 77 39 77l140 12q16 3 17 107q-16 511 -49 511h-7q-1095 -3 -1158 -7 q-96 -155 -108.5 -494t147 -519t380.5 -147t202.5 253t-203 208t-184.5 -120v-42q0 -84 112 -84q63 6 63 21q-83 0 -126 49v28q25 42 63 42q206 10 224 -126q-55 -148 -263 -124t-193.5 201.5t146 239.5t298 1.5t153 -357t-286.5 -304.5t-453 156t-179 617t180 740.5 t621 844.5l5 29l-7 7h-84q-961 50 -1110 -65t-186 -257t42.5 -258t263.5 -101.5t158.5 159t-98.5 136t-57 -61.5q5 -115 -39.5 -120.5t-58.5 29.5t-14 119v7q45 161 175 170.5t188 -248.5t-254.5 -296.5t-397.5 240.5zM932 836h7q1144 -21 1134 9l-2 967l-16 -3l-383 -14 q-24 14 -740 -959zM1662 2139q-17 27 33 49.5t128.5 94t203.5 194.5l18 12q43 10 65 -25l15 -24q-58 -64 -201 -225t-255 -88z" />
<glyph unicode="&#xc2;" horiz-adv-x="2513" d="M23 1283q-85 279 109 470.5t436 187t1403 -12.5q122 0 140 35h14q63 -47 63 -91q-21 -52 -21 -105l70 -1547q0 -105 14 -105q235 12 224 -63v-14q0 -33 -276.5 -41.5t-276.5 13.5q-4 77 39 77l140 12q16 3 17 107q-16 511 -49 511h-7q-1095 -3 -1158 -7 q-96 -155 -108.5 -494t147 -519t380.5 -147t202.5 253t-203 208t-184.5 -120v-42q0 -84 112 -84q63 6 63 21q-83 0 -126 49v28q25 42 63 42q206 10 224 -126q-55 -148 -263 -124t-193.5 201.5t146 239.5t298 1.5t153 -357t-286.5 -304.5t-453 156t-179 617t180 740.5 t621 844.5l5 29l-7 7h-84q-961 50 -1110 -65t-186 -257t42.5 -258t263.5 -101.5t158.5 159t-98.5 136t-57 -61.5q5 -115 -39.5 -120.5t-58.5 29.5t-14 119v7q45 161 175 170.5t188 -248.5t-254.5 -296.5t-397.5 240.5zM932 836h7q1144 -21 1134 9l-2 967l-16 -3l-383 -14 q-24 14 -740 -959zM1528 2058l9 13q16 53 87.5 157t202.5 204q80 4 2 -162l-183 -214q-87 -120 -118 2zM1827 2432q106 -81 155.5 -152t56.5 -95l1 -4q83 -129 18 -159t-112 91l-112 158q-88 161 -7 161z" />
<glyph unicode="&#xc3;" horiz-adv-x="2513" d="M23 1283q-85 279 109 470.5t436 187t1403 -12.5q122 0 140 35h14q63 -47 63 -91q-21 -52 -21 -105l70 -1547q0 -105 14 -105q235 12 224 -63v-14q0 -33 -276.5 -41.5t-276.5 13.5q-4 77 39 77l140 12q16 3 17 107q-16 511 -49 511h-7q-1095 -3 -1158 -7 q-96 -155 -108.5 -494t147 -519t380.5 -147t202.5 253t-203 208t-184.5 -120v-42q0 -84 112 -84q63 6 63 21q-83 0 -126 49v28q25 42 63 42q206 10 224 -126q-55 -148 -263 -124t-193.5 201.5t146 239.5t298 1.5t153 -357t-286.5 -304.5t-453 156t-179 617t180 740.5 t621 844.5l5 29l-7 7h-84q-961 50 -1110 -65t-186 -257t42.5 -258t263.5 -101.5t158.5 159t-98.5 136t-57 -61.5q5 -115 -39.5 -120.5t-58.5 29.5t-14 119v7q45 161 175 170.5t188 -248.5t-254.5 -296.5t-397.5 240.5zM916 2149q29 238 214 281t309.5 -111t249.5 -154 t181.5 44t61.5 119q0 18 -9 50t35 30.5t37 -106.5t-109 -182t-232.5 -64.5t-255.5 159t-259.5 108t-177.5 -213.5q-45 -8 -45 40zM932 836h7q1144 -21 1134 9l-2 967l-16 -3l-383 -14q-24 14 -740 -959z" />
<glyph unicode="&#xc4;" horiz-adv-x="2513" d="M23 1283q-85 279 109 470.5t436 187t1403 -12.5q122 0 140 35h14q63 -47 63 -91q-21 -52 -21 -105l70 -1547q0 -105 14 -105q235 12 224 -63v-14q0 -33 -276.5 -41.5t-276.5 13.5q-4 77 39 77l140 12q16 3 17 107q-16 511 -49 511h-7q-1095 -3 -1158 -7 q-96 -155 -108.5 -494t147 -519t380.5 -147t202.5 253t-203 208t-184.5 -120v-42q0 -84 112 -84q63 6 63 21q-83 0 -126 49v28q25 42 63 42q206 10 224 -126q-55 -148 -263 -124t-193.5 201.5t146 239.5t298 1.5t153 -357t-286.5 -304.5t-453 156t-179 617t180 740.5 t621 844.5l5 29l-7 7h-84q-961 50 -1110 -65t-186 -257t42.5 -258t263.5 -101.5t158.5 159t-98.5 136t-57 -61.5q5 -115 -39.5 -120.5t-58.5 29.5t-14 119v7q45 161 175 170.5t188 -248.5t-254.5 -296.5t-397.5 240.5zM932 836h7q1144 -21 1134 9l-2 967l-16 -3l-383 -14 q-24 14 -740 -959zM1451 2276.5q14 107.5 97 107.5q122 0 133 -107.5t-94 -118.5q-150 11 -136 118.5zM1451 2276.5q14 107.5 97 107.5q122 0 133 -107.5t-94 -118.5q-150 11 -136 118.5zM1847 2264q14 108 97 108q122 0 132.5 -108t-93.5 -119q-150 11 -136 119z" />
<glyph unicode="&#xc5;" horiz-adv-x="2513" d="M23 1283q-85 279 109 470.5t436 187t1403 -12.5q122 0 140 35h14q63 -47 63 -91q-21 -52 -21 -105l70 -1547q0 -105 14 -105q235 12 224 -63v-14q0 -33 -276.5 -41.5t-276.5 13.5q-4 77 39 77l140 12q16 3 17 107q-16 511 -49 511h-7q-1095 -3 -1158 -7 q-96 -155 -108.5 -494t147 -519t380.5 -147t202.5 253t-203 208t-184.5 -120v-42q0 -84 112 -84q63 6 63 21q-83 0 -126 49v28q25 42 63 42q206 10 224 -126q-55 -148 -263 -124t-193.5 201.5t146 239.5t298 1.5t153 -357t-286.5 -304.5t-453 156t-179 617t180 740.5 t621 844.5l5 29l-7 7h-84q-961 50 -1110 -65t-186 -257t42.5 -258t263.5 -101.5t158.5 159t-98.5 136t-57 -61.5q5 -115 -39.5 -120.5t-58.5 29.5t-14 119v7q45 161 175 170.5t188 -248.5t-254.5 -296.5t-397.5 240.5zM932 836h7q1144 -21 1134 9l-2 967l-16 -3l-383 -14 q-24 14 -740 -959zM1562.5 2315q46.5 140 233 142t201 -180.5t-122.5 -245t-247.5 40.5t-64 243zM1646.5 2265.5q-15.5 -103.5 105 -145t146 100t-105 145t-146 -100z" />
<glyph unicode="&#xc6;" horiz-adv-x="3776" d="M23 1283q-85 279 109 470.5t436 187t1403 -12.5q122 0 140 35h14q63 -47 63 -91q-21 -52 -21 -105l70 -1547q0 -105 14 -105q235 12 224 -63v-14q0 -33 -276.5 -41.5t-276.5 13.5q-4 77 39 77l140 12q16 3 17 107q-16 511 -49 511h-7q-1095 -3 -1158 -7 q-96 -155 -108.5 -494t147 -519t380.5 -147t202.5 253t-203 208t-184.5 -120v-42q0 -84 112 -84q63 6 63 21q-83 0 -126 49v28q25 42 63 42q206 10 224 -126q-55 -148 -263 -124t-193.5 201.5t146 239.5t298 1.5t153 -357t-286.5 -304.5t-453 156t-179 617t180 740.5 t621 844.5l5 29l-7 7h-84q-961 50 -1110 -65t-186 -257t42.5 -258t263.5 -101.5t158.5 159t-98.5 136t-57 -61.5q5 -115 -39.5 -120.5t-58.5 29.5t-14 119v7q45 161 175 170.5t188 -248.5t-254.5 -296.5t-397.5 240.5zM932 836h7q1144 -21 1134 9l-2 967l-16 -3l-383 -14 q-24 14 -740 -959zM1766 74q0 42 42 56l182 -7h84l35 14l23 365q-23 1281 -77 1281l-133 -14q-77 14 -77 70v21q0 21 56 35l154 -7h364l734 20h84l252 7q56 -29 56 -63l13 -448q-37 -28 -77 -28h-21q-28 9 -28 63l1 356q0 14 -1240 -17q-5 12 -5 -30l35 -595l56 -14l462 -14 v-7q-9 194 -11.5 253t67.5 67.5t70 -306.5q14 -469 17.5 -535.5t-59.5 -66.5q-56 0 -56 105l-19 382l-506 -11q5 -685 12 -876q46 -7 168 -7h168l784 14q146 9 154 18.5t-5.5 182t35.5 172.5h42q42 0 44.5 -242.5t-95.5 -242.5l-1701 -21q-84 16 -84 70z" />
<glyph unicode="&#xc7;" horiz-adv-x="2027" d="M44.5 1256.5q85.5 321.5 315 522.5t580 140.5t478.5 -261.5t45 -489.5t-383 -334t-400.5 94.5t-62 344.5t220.5 225t250 -53t76 -150.5t-43 -77q-47 0 -63 105q-61 77 -191 77t-147 -154.5t46.5 -223.5t237.5 -70t278.5 110.5t104.5 329t-214 323t-438 95.5t-408 -254.5 t-205.5 -529t146 -568.5t586 -328t652 110.5t272 358.5t81.5 240.5t76 -33.5q-9 -220 -141.5 -452t-395 -308t-559.5 -46t-494.5 165t-291.5 452.5t-8.5 639zM626.5 -249.5q-25.5 154.5 49.5 142t50 -49t29.5 -102.5t123 -37t92.5 84.5t24 270.5l119 -7 q15 -264 -92.5 -370.5t-238.5 -96t-156.5 165z" />
<glyph unicode="&#xc8;" horiz-adv-x="1974" d="M21 79q0 42 42 56l182 -7h84l35 14l23 365q-23 1281 -77 1281l-133 -14q-77 14 -77 70v21q0 21 56 35l154 -7h364l734 20h84l252 7q56 -29 56 -63l13 -448q-37 -28 -77 -28h-21q-28 9 -28 63l1 356q0 14 -1240 -17q-5 12 -5 -30l35 -595l56 -14l462 -14v-7 q-9 194 -11.5 253t67.5 67.5t70 -306.5q14 -469 17.5 -535.5t-59.5 -66.5q-56 0 -56 105l-19 382l-506 -11q5 -685 12 -876q46 -7 168 -7h168l784 14q146 9 154 18.5t-5.5 182t35.5 172.5h42q42 0 44.5 -242.5t-95.5 -242.5l-1701 -21q-84 16 -84 70zM542 2358l15 24 q23 35 66 25l18 -12q124 -123 202.5 -194.5t129 -94t32.5 -49.5l-7 -12q-112 -73 -255 88t-201 225z" />
<glyph unicode="&#xc9;" horiz-adv-x="1974" d="M21 79q0 42 42 56l182 -7h84l35 14l23 365q-23 1281 -77 1281l-133 -14q-77 14 -77 70v21q0 21 56 35l154 -7h364l734 20h84l252 7q56 -29 56 -63l13 -448q-37 -28 -77 -28h-21q-28 9 -28 63l1 356q0 14 -1240 -17q-5 12 -5 -30l35 -595l56 -14l462 -14v-7 q-9 194 -11.5 253t67.5 67.5t70 -306.5q14 -469 17.5 -535.5t-59.5 -66.5q-56 0 -56 105l-19 382l-506 -11q5 -685 12 -876q46 -7 168 -7h168l784 14q146 9 154 18.5t-5.5 182t35.5 172.5h42q42 0 44.5 -242.5t-95.5 -242.5l-1701 -21q-84 16 -84 70zM1207 2103 q-17 27 33 49.5t128.5 94t203.5 194.5l18 12q43 10 65 -25l15 -24q-58 -64 -201 -225t-255 -88z" />
<glyph unicode="&#xca;" horiz-adv-x="1974" d="M21 79q0 42 42 56l182 -7h84l35 14l23 365q-23 1281 -77 1281l-133 -14q-77 14 -77 70v21q0 21 56 35l154 -7h364l734 20h84l252 7q56 -29 56 -63l13 -448q-37 -28 -77 -28h-21q-28 9 -28 63l1 356q0 14 -1240 -17q-5 12 -5 -30l35 -595l56 -14l462 -14v-7 q-9 194 -11.5 253t67.5 67.5t70 -306.5q14 -469 17.5 -535.5t-59.5 -66.5q-56 0 -56 105l-19 382l-506 -11q5 -685 12 -876q46 -7 168 -7h168l784 14q146 9 154 18.5t-5.5 182t35.5 172.5h42q42 0 44.5 -242.5t-95.5 -242.5l-1701 -21q-84 16 -84 70zM771 2073l9 13 q16 53 87.5 157t202.5 204q80 4 2 -162l-183 -214q-87 -120 -118 2zM1070 2447q106 -81 155.5 -152t56.5 -95l1 -4q83 -129 18 -159t-112 91l-112 158q-88 161 -7 161z" />
<glyph unicode="&#xcb;" horiz-adv-x="1974" d="M21 79q0 42 42 56l182 -7h84l35 14l23 365q-23 1281 -77 1281l-133 -14q-77 14 -77 70v21q0 21 56 35l154 -7h364l734 20h84l252 7q56 -29 56 -63l13 -448q-37 -28 -77 -28h-21q-28 9 -28 63l1 356q0 14 -1240 -17q-5 12 -5 -30l35 -595l56 -14l462 -14v-7 q-9 194 -11.5 253t67.5 67.5t70 -306.5q14 -469 17.5 -535.5t-59.5 -66.5q-56 0 -56 105l-19 382l-506 -11q5 -685 12 -876q46 -7 168 -7h168l784 14q146 9 154 18.5t-5.5 182t35.5 172.5h42q42 0 44.5 -242.5t-95.5 -242.5l-1701 -21q-84 16 -84 70zM612 2179.5 q14 107.5 97 107.5q122 0 133 -107.5t-94 -118.5q-150 11 -136 118.5zM612 2179.5q14 107.5 97 107.5q122 0 133 -107.5t-94 -118.5q-150 11 -136 118.5zM1008 2167q14 108 97 108q122 0 132.5 -108t-93.5 -119q-150 11 -136 119z" />
<glyph unicode="&#xcc;" horiz-adv-x="723" d="M-16 2312l15 24q22 35 65 25l18 -12q125 -123 203.5 -194.5t128.5 -94t33 -49.5l-7 -12q-112 -73 -255 88t-201 225zM80 1833q-10 55 47 60l460 -3q49 -16 49 -56q13 -45 -47 -51l-173 -12v-7l7 -63l10 -1562q9 -13 219 -13q47 -11 43 -61.5t-50 -50.5l-533 -2 q-14 0 -28 42q0 70 70 70l140 8l19 1639q2 4 -160 9q-82 9 -73 53z" />
<glyph unicode="&#xcd;" horiz-adv-x="723" d="M80 1833q-10 55 47 60l460 -3q49 -16 49 -56q13 -45 -47 -51l-173 -12v-7l7 -63l10 -1562q9 -13 219 -13q47 -11 43 -61.5t-50 -50.5l-533 -2q-14 0 -28 42q0 70 70 70l140 8l19 1639q2 4 -160 9q-82 9 -73 53zM265 2082q-17 27 33 49.5t128.5 94t203.5 194.5l18 12 q43 10 65 -25l15 -24q-58 -64 -201 -225t-255 -88z" />
<glyph unicode="&#xce;" horiz-adv-x="723" d="M70 2017l9 13q16 53 87.5 157t202.5 204q80 4 2 -162l-183 -214q-87 -120 -118 2zM80 1833q-10 55 47 60l460 -3q49 -16 49 -56q13 -45 -47 -51l-173 -12v-7l7 -63l10 -1562q9 -13 219 -13q47 -11 43 -61.5t-50 -50.5l-533 -2q-14 0 -28 42q0 70 70 70l140 8l19 1639 q2 4 -160 9q-82 9 -73 53zM369 2391q106 -81 155.5 -152t56.5 -95l1 -4q83 -129 18 -159t-112 91l-112 158q-88 161 -7 161z" />
<glyph unicode="&#xcf;" horiz-adv-x="723" d="M44 2200.5q14 107.5 96 107.5q123 0 133.5 -107.5t-94.5 -118.5q-149 11 -135 118.5zM44 2200.5q14 107.5 96 107.5q123 0 133.5 -107.5t-94.5 -118.5q-149 11 -135 118.5zM80 1833q-10 55 47 60l460 -3q49 -16 49 -56q13 -45 -47 -51l-173 -12v-7l7 -63l10 -1562 q9 -13 219 -13q47 -11 43 -61.5t-50 -50.5l-533 -2q-14 0 -28 42q0 70 70 70l140 8l19 1639q2 4 -160 9q-82 9 -73 53zM440 2188q14 108 96 108q123 0 133.5 -108t-94.5 -119q-149 11 -135 119z" />
<glyph unicode="&#xd0;" horiz-adv-x="2003" d="M-17 1903l21 14l399 14h42q30 0 70 -231q86 108 329.5 180t548.5 -66.5t432.5 -474t47.5 -789.5t-539.5 -449t-595.5 177t-61.5 341.5t213.5 186t191.5 -68t52.5 -163.5v-42q-19 -98 -77 -98h-7q-38 0 -56 175q-37 132 -131.5 89.5t-91 -180.5t129.5 -219.5t312.5 -95.5 t324.5 38.5t218.5 268t41.5 523.5t-223 510.5t-428.5 239t-413.5 -68.5t-204 -210l-11 -1042q9 -222 30 -307l142 -13q144 -10 138 -64.5t-103 -54.5h-49l-518 -14l-22 12q-17 117 11 117q238 23 241 13q25 269 30.5 965t-50.5 696q-62 14 -165.5 -7t-164 -11t-55.5 109z M56 1060q4 63 102 56q253 -10 489.5 2.5t237.5 -58t-76 -65.5l-715 -1q-28 2 -38 66z" />
<glyph unicode="&#xd1;" horiz-adv-x="1966" d="M-203.5 -530.5q9.5 234.5 178.5 256t202.5 -123t-44.5 -204.5l-14 1q-53 2 -68 38l1 14l46 89v7q3 68 -84 83.5t-102.5 -150.5t145.5 -208.5t292.5 89.5t159.5 544t-0.5 1154.5t-49.5 743.5l-438 19q-21 125 30 127l506 9l21 -1q104 -16 209 -306t819 -1396h7v14h7 q35 1703 151.5 1932t336.5 230t252 -196.5t-116.5 -242.5t-200 59t-2.5 132t68 -34.5t93.5 -48.5t64 113t-154.5 105.5t-253 -196.5t-148 -1850q-4 -108 8 -188.5t-80 -68.5q-123 -1 -1056 1759q111 -1956 8 -2242.5t-278.5 -357.5t-350.5 -5t-165.5 300.5zM527 2205 q29 238 214 281t309.5 -111t249.5 -154t181.5 44t61.5 119q0 18 -9 50t35 30.5t37 -106.5t-109 -182t-232.5 -64.5t-255.5 159t-259.5 108t-177.5 -213.5q-45 -8 -45 40z" />
<glyph unicode="&#xd2;" horiz-adv-x="1820" d="M30.5 1052.5q59.5 393.5 295 625.5t540.5 250.5t594 -203.5t320.5 -645t-152.5 -731t-728.5 -317t-736.5 309t-132.5 711.5zM203 566.5q140 -348.5 469 -406t549 23.5t343.5 300.5t105 552.5t-200 514t-389 222.5t-459.5 -51.5t-405 -450t-13 -705.5zM470 2374l15 24 q23 35 66 25l18 -12q124 -123 202.5 -194.5t129 -94t32.5 -49.5l-7 -12q-112 -73 -255 88t-201 225z" />
<glyph unicode="&#xd3;" horiz-adv-x="1820" d="M30.5 1052.5q59.5 393.5 295 625.5t540.5 250.5t594 -203.5t320.5 -645t-152.5 -731t-728.5 -317t-736.5 309t-132.5 711.5zM203 566.5q140 -348.5 469 -406t549 23.5t343.5 300.5t105 552.5t-200 514t-389 222.5t-459.5 -51.5t-405 -450t-13 -705.5zM879 2057 q-17 27 33 49.5t128.5 94t203.5 194.5l18 12q43 10 65 -25l15 -24q-58 -64 -201 -225t-255 -88z" />
<glyph unicode="&#xd4;" horiz-adv-x="1820" d="M30.5 1052.5q59.5 393.5 295 625.5t540.5 250.5t594 -203.5t320.5 -645t-152.5 -731t-728.5 -317t-736.5 309t-132.5 711.5zM203 566.5q140 -348.5 469 -406t549 23.5t343.5 300.5t105 552.5t-200 514t-389 222.5t-459.5 -51.5t-405 -450t-13 -705.5zM771 2073l9 13 q16 53 87.5 157t202.5 204q80 4 2 -162l-183 -214q-87 -120 -118 2zM1070 2447q106 -81 155.5 -152t56.5 -95l1 -4q83 -129 18 -159t-112 91l-112 158q-88 161 -7 161z" />
<glyph unicode="&#xd5;" horiz-adv-x="1820" d="M30.5 1052.5q59.5 393.5 295 625.5t540.5 250.5t594 -203.5t320.5 -645t-152.5 -731t-728.5 -317t-736.5 309t-132.5 711.5zM203 566.5q140 -348.5 469 -406t549 23.5t343.5 300.5t105 552.5t-200 514t-389 222.5t-459.5 -51.5t-405 -450t-13 -705.5zM384 2124 q29 238 214 281t309.5 -111t249.5 -154t181.5 44t61.5 119q0 18 -9 50t35 30.5t37 -106.5t-109 -182t-232.5 -64.5t-255.5 159t-259.5 108t-177.5 -213.5q-45 -8 -45 40z" />
<glyph unicode="&#xd6;" horiz-adv-x="1820" d="M30.5 1052.5q59.5 393.5 295 625.5t540.5 250.5t594 -203.5t320.5 -645t-152.5 -731t-728.5 -317t-736.5 309t-132.5 711.5zM203 566.5q140 -348.5 469 -406t549 23.5t343.5 300.5t105 552.5t-200 514t-389 222.5t-459.5 -51.5t-405 -450t-13 -705.5zM591 2226.5 q14 107.5 97 107.5q122 0 133 -107.5t-94 -118.5q-150 11 -136 118.5zM591 2226.5q14 107.5 97 107.5q122 0 133 -107.5t-94 -118.5q-150 11 -136 118.5zM987 2214q14 108 97 108q122 0 132.5 -108t-93.5 -119q-150 11 -136 119z" />
<glyph unicode="&#xd7;" horiz-adv-x="950" d="M138 1011q-15 24 31 69q53 34 105 -50q140 -210 364.5 -508.5t168 -340.5t-97.5 23zM186 252l510 847q15 23 76 -1q52 -35 -4 -116q-137 -213 -320 -538t-244 -290.5t-18 98.5z" />
<glyph unicode="&#xd8;" horiz-adv-x="1820" d="M30.5 1052.5q59.5 393.5 295 625.5t540.5 250.5t594 -203.5t320.5 -645t-152.5 -731t-728.5 -317t-736.5 309t-132.5 711.5zM203 566.5q140 -348.5 469 -406t549 23.5t343.5 300.5t105 552.5t-200 514t-389 222.5t-459.5 -51.5t-405 -450t-13 -705.5zM377 -97 q959 2191 1043 2191h7l35 -35v-14q-924 -1994 -1003 -2198l-54 14q-28 14 -28 42z" />
<glyph unicode="&#xd9;" horiz-adv-x="1946" d="M-11 1839l5 46q5 45 521 20l24 -21v-14q-3 -56 -80 -66l-142 6l-8 -28q-12 -309 41 -917.5t352 -697t611.5 -10.5t320 736.5t-38.5 891.5l-231 -3q-53 21 -38 70.5t162 42.5l357 -9q29 -11 41 -37l-3 -49q16 -28 -106 -30l-48 1l3 -69q28 -1014 -73.5 -1355t-710 -347 t-687.5 589.5t-49 1225.5l-70 -4l-112 5q-36 2 -41 23zM275 2399l15 24q23 35 66 25l18 -12q124 -123 202.5 -194.5t129 -94t32.5 -49.5l-7 -12q-112 -73 -255 88t-201 225z" />
<glyph unicode="&#xda;" horiz-adv-x="1946" d="M-11 1839l5 46q5 45 521 20l24 -21v-14q-3 -56 -80 -66l-142 6l-8 -28q-12 -309 41 -917.5t352 -697t611.5 -10.5t320 736.5t-38.5 891.5l-231 -3q-53 21 -38 70.5t162 42.5l357 -9q29 -11 41 -37l-3 -49q16 -28 -106 -30l-48 1l3 -69q28 -1014 -73.5 -1355t-710 -347 t-687.5 589.5t-49 1225.5l-70 -4l-112 5q-36 2 -41 23zM971 2088q-17 27 33 49.5t128.5 94t203.5 194.5l18 12q43 10 65 -25l15 -24q-58 -64 -201 -225t-255 -88z" />
<glyph unicode="&#xdb;" horiz-adv-x="1946" d="M-11 1839l5 46q5 45 521 20l24 -21v-14q-3 -56 -80 -66l-142 6l-8 -28q-12 -309 41 -917.5t352 -697t611.5 -10.5t320 736.5t-38.5 891.5l-231 -3q-53 21 -38 70.5t162 42.5l357 -9q29 -11 41 -37l-3 -49q16 -28 -106 -30l-48 1l3 -69q28 -1014 -73.5 -1355t-710 -347 t-687.5 589.5t-49 1225.5l-70 -4l-112 5q-36 2 -41 23zM771 2073l9 13q16 53 87.5 157t202.5 204q80 4 2 -162l-183 -214q-87 -120 -118 2zM1070 2447q106 -81 155.5 -152t56.5 -95l1 -4q83 -129 18 -159t-112 91l-112 158q-88 161 -7 161z" />
<glyph unicode="&#xdc;" horiz-adv-x="1946" d="M-11 1839l5 46q5 45 521 20l24 -21v-14q-3 -56 -80 -66l-142 6l-8 -28q-12 -309 41 -917.5t352 -697t611.5 -10.5t320 736.5t-38.5 891.5l-231 -3q-53 21 -38 70.5t162 42.5l357 -9q29 -11 41 -37l-3 -49q16 -28 -106 -30l-48 1l3 -69q28 -1014 -73.5 -1355t-710 -347 t-687.5 589.5t-49 1225.5l-70 -4l-112 5q-36 2 -41 23zM750 2282.5q14 107.5 97 107.5q122 0 133 -107.5t-94 -118.5q-150 11 -136 118.5zM750 2282.5q14 107.5 97 107.5q122 0 133 -107.5t-94 -118.5q-150 11 -136 118.5zM1146 2270q14 108 97 108q122 0 132.5 -108 t-93.5 -119q-150 11 -136 119z" />
<glyph unicode="&#xdd;" horiz-adv-x="1966" d="M146 1829v28q19 63 203 63h301q77 0 87 -71q46 -80 -206 -76l423 -782q177 479 307.5 723.5t361.5 269.5t283 -184t-166 -260h-105q-63 31 -43 78.5t78 47.5h21l42 -28q80 0 98 105q-66 186 -246 119t-293 -358.5t-204.5 -500.5t-63.5 -880h14l157 25q53 -13 53 -60 q0 -77 -77 -77h-98h-448l-28 28q0 91 91 91l204 -4q27 4 14.5 374.5t-22.5 361.5q-471 887 -489 907l-123 11q-120 -23 -126 49zM1024 1959q-17 27 33 49.5t128.5 94t203.5 194.5l18 12q43 10 65 -25l15 -24q-58 -64 -201 -225t-255 -88z" />
<glyph unicode="&#xde;" horiz-adv-x="1591" d="M80 1833q-10 55 47 60l460 -3q49 -16 49 -56q13 -45 -47 -51l-173 -12v-7l7 -63l10 -1562q9 -13 219 -13q47 -11 43 -61.5t-50 -50.5l-533 -2q-14 0 -28 42q0 70 70 70l140 8l19 1639q2 4 -160 9q-82 9 -73 53zM367 539q546 9 770 74.5t241 324.5t-111 402.5t-763 115.5 q-130 -11 -136.5 50.5t227.5 88.5q626 -4 767 -180t112 -512.5t-337 -399t-697 -59.5q-37 2 -71 19t-2 76z" />
<glyph unicode="&#xdf;" horiz-adv-x="1574" d="M6 -289q0 70 70 70l140 8l19 1639q2 4 29 60l56 107l24 -29l-6 -145l7 -63l10 -1562q9 -13 219 -13q47 -11 43 -61.5t-50 -50.5l-533 -2q-14 0 -28 42zM275 1339q-49 15 22.5 214.5t345.5 273.5t525 -22t285 -416t-272 -538q281 -225 273.5 -418.5t-101 -295.5 t-282.5 -124t-367 48t-186 223t135 209l34 4l24 -19l2 -21q-143 -141 -57 -248t305.5 -103.5t308.5 91t92.5 214t-90 248t-312.5 95.5l-69 -8q-71 -8 -84 49t165 98t267.5 134t110 217t-17 257t-206 210t-391 22t-317 -232t-143.5 -162z" />
<glyph unicode="&#xe0;" horiz-adv-x="1533" d="M41 445.5q-47 378.5 128.5 618t418 277.5t410.5 -56q2 -13 82 -40q12 -895 18 -951l2 -14q17 -73 90.5 -129.5t133.5 -10.5t40.5 171.5t56.5 143.5l28 3q33 4 52 -93q21 -281 -144.5 -336t-250 33.5t-89.5 137.5q-231 -262 -580 -197.5t-396 443zM156.5 542 q22.5 -306 194 -381.5t331.5 -43.5t266 195q18 2 0 728l-6 56q-17 148 -239.5 143.5t-395.5 -198t-150.5 -499.5zM225 1938l15 24q23 35 66 25l18 -12q124 -123 202.5 -194.5t129 -94t32.5 -49.5l-7 -12q-112 -73 -255 88t-201 225z" />
<glyph unicode="&#xe1;" horiz-adv-x="1533" d="M41 445.5q-47 378.5 128.5 618t418 277.5t410.5 -56q2 -13 82 -40q12 -895 18 -951l2 -14q17 -73 90.5 -129.5t133.5 -10.5t40.5 171.5t56.5 143.5l28 3q33 4 52 -93q21 -281 -144.5 -336t-250 33.5t-89.5 137.5q-231 -262 -580 -197.5t-396 443zM156.5 542 q22.5 -306 194 -381.5t331.5 -43.5t266 195q18 2 0 728l-6 56q-17 148 -239.5 143.5t-395.5 -198t-150.5 -499.5zM655 1647q-17 27 33 49.5t128.5 94t203.5 194.5l18 12q43 10 65 -25l15 -24q-58 -64 -201 -225t-255 -88z" />
<glyph unicode="&#xe2;" horiz-adv-x="1533" d="M41 445.5q-47 378.5 128.5 618t418 277.5t410.5 -56q2 -13 82 -40q12 -895 18 -951l2 -14q17 -73 90.5 -129.5t133.5 -10.5t40.5 171.5t56.5 143.5l28 3q33 4 52 -93q21 -281 -144.5 -336t-250 33.5t-89.5 137.5q-231 -262 -580 -197.5t-396 443zM156.5 542 q22.5 -306 194 -381.5t331.5 -43.5t266 195q18 2 0 728l-6 56q-17 148 -239.5 143.5t-395.5 -198t-150.5 -499.5zM285 1536l9 13q16 53 87.5 157t202.5 204q80 4 2 -162l-183 -214q-87 -120 -118 2zM584 1910q106 -81 155.5 -152t56.5 -95l1 -4q83 -129 18 -159t-112 91 l-112 158q-88 161 -7 161z" />
<glyph unicode="&#xe3;" horiz-adv-x="1533" d="M41 445.5q-47 378.5 128.5 618t418 277.5t410.5 -56q2 -13 82 -40q12 -895 18 -951l2 -14q17 -73 90.5 -129.5t133.5 -10.5t40.5 171.5t56.5 143.5l28 3q33 4 52 -93q21 -281 -144.5 -336t-250 33.5t-89.5 137.5q-231 -262 -580 -197.5t-396 443zM108 1601 q29 238 214 281t309.5 -111t249.5 -154t181.5 44t61.5 119q0 18 -9 50t35 30.5t37 -106.5t-109 -182t-232.5 -64.5t-255.5 159t-259.5 108t-177.5 -213.5q-45 -8 -45 40zM156.5 542q22.5 -306 194 -381.5t331.5 -43.5t266 195q18 2 0 728l-6 56q-17 148 -239.5 143.5 t-395.5 -198t-150.5 -499.5z" />
<glyph unicode="&#xe4;" horiz-adv-x="1533" d="M41 445.5q-47 378.5 128.5 618t418 277.5t410.5 -56q2 -13 82 -40q12 -895 18 -951l2 -14q17 -73 90.5 -129.5t133.5 -10.5t40.5 171.5t56.5 143.5l28 3q33 4 52 -93q21 -281 -144.5 -336t-250 33.5t-89.5 137.5q-231 -262 -580 -197.5t-396 443zM156.5 542 q22.5 -306 194 -381.5t331.5 -43.5t266 195q18 2 0 728l-6 56q-17 148 -239.5 143.5t-395.5 -198t-150.5 -499.5zM335.5 1668.5q15.5 107.5 106.5 107.5q135 0 147 -107.5t-104 -118.5q-165 11 -149.5 118.5zM335.5 1668.5q15.5 107.5 106.5 107.5q135 0 147 -107.5 t-104 -118.5q-165 11 -149.5 118.5zM773 1656q15 108 107 108q135 0 146.5 -108t-104.5 -119q-164 11 -149 119z" />
<glyph unicode="&#xe5;" horiz-adv-x="1533" d="M41 445.5q-47 378.5 128.5 618t418 277.5t410.5 -56q2 -13 82 -40q12 -895 18 -951l2 -14q17 -73 90.5 -129.5t133.5 -10.5t40.5 171.5t56.5 143.5l28 3q33 4 52 -93q21 -281 -144.5 -336t-250 33.5t-89.5 137.5q-231 -262 -580 -197.5t-396 443zM156.5 542 q22.5 -306 194 -381.5t331.5 -43.5t266 195q18 2 0 728l-6 56q-17 148 -239.5 143.5t-395.5 -198t-150.5 -499.5zM472.5 1670q46.5 140 233 142t201 -180.5t-122.5 -245t-247.5 40.5t-64 243zM556.5 1620.5q-15.5 -103.5 105 -145t146 100t-105 145t-146 -100z" />
<glyph unicode="&#xe6;" horiz-adv-x="2077" d="M41 445.5q-47 378.5 128.5 618t418 277.5t410.5 -56q2 -13 82 -40q12 -895 18 -951l2 -14q17 -73 90.5 -129.5t202.5 -61.5t-36.5 -60t-250 33.5t-89.5 137.5q-231 -262 -580 -197.5t-396 443zM156.5 542q22.5 -306 194 -381.5t331.5 -43.5t266 195q18 2 0 728l-6 56 q-17 148 -239.5 143.5t-395.5 -198t-150.5 -499.5zM1012 676q32 399 164 570.5t362 146.5t240.5 -312t-258.5 -454.5t-382 -167.5v-7q24 -182 142 -278.5t270 -72.5t229.5 127.5t113.5 209t83 105.5q35 0 35 -63v-7q-145 -445 -439.5 -476.5t-427 124.5t-132.5 555z M1138 574q211 46 376 179t157 339.5t-205 197t-285 -325t-43 -390.5z" />
<glyph unicode="&#xe7;" horiz-adv-x="1265" d="M5.5 724.5q24.5 267.5 164.5 452.5t394.5 187.5t373.5 -116.5q96 -116 63.5 -158t-178 65t-365 67t-305 -386.5t96.5 -534t375 -176t297.5 92.5t152.5 28t-92 -151.5t-414 -83.5t-431 230.5t-132.5 483zM196.5 -223.5q-25.5 154.5 49.5 142t50 -49t29.5 -102.5t123 -37 t92.5 84.5t24 270.5l119 -7q15 -264 -92.5 -370.5t-238.5 -96t-156.5 165zM859 1005q-20 14 105 196l46 70q51 25 83 -2q10 -10 4 -45l-126 -215q-32 -48 -98 -21zM949 318q-8 56 28 78q13 6 44 -11l164 -187q36 -46 -11 -100l-21 -8q-19 -14 -152 162z" />
<glyph unicode="&#xe8;" horiz-adv-x="1045" d="M9 681q32 399 164 570.5t362 146.5t240.5 -312t-258.5 -454.5t-382 -167.5v-7q24 -182 142 -278.5t270 -72.5t229.5 127.5t113.5 209t83 105.5q35 0 35 -63v-7q-145 -445 -439.5 -476.5t-427 124.5t-132.5 555zM113 1866l15 24q23 35 66 25l18 -12q124 -123 202.5 -194.5 t129 -94t32.5 -49.5l-7 -12q-112 -73 -255 88t-201 225zM135 579q211 46 376 179t157 339.5t-205 197t-285 -325t-43 -390.5z" />
<glyph unicode="&#xe9;" horiz-adv-x="1045" d="M9 681q32 399 164 570.5t362 146.5t240.5 -312t-258.5 -454.5t-382 -167.5v-7q24 -182 142 -278.5t270 -72.5t229.5 127.5t113.5 209t83 105.5q35 0 35 -63v-7q-145 -445 -439.5 -476.5t-427 124.5t-132.5 555zM135 579q211 46 376 179t157 339.5t-205 197t-285 -325 t-43 -390.5zM353 1555q-17 27 33 49.5t128.5 94t203.5 194.5l18 12q43 10 65 -25l15 -24q-58 -64 -201 -225t-255 -88z" />
<glyph unicode="&#xea;" horiz-adv-x="1045" d="M9 681q32 399 164 570.5t362 146.5t240.5 -312t-258.5 -454.5t-382 -167.5v-7q24 -182 142 -278.5t270 -72.5t229.5 127.5t113.5 209t83 105.5q35 0 35 -63v-7q-145 -445 -439.5 -476.5t-427 124.5t-132.5 555zM135 579q211 46 376 179t157 339.5t-205 197t-285 -325 t-43 -390.5zM223 1577l9 13q16 53 87.5 157t202.5 204q80 4 2 -162l-183 -214q-87 -120 -118 2zM522 1951q106 -81 155.5 -152t56.5 -95l1 -4q83 -129 18 -159t-112 91l-112 158q-88 161 -7 161z" />
<glyph unicode="&#xeb;" horiz-adv-x="1045" d="M9 681q32 399 164 570.5t362 146.5t240.5 -312t-258.5 -454.5t-382 -167.5v-7q24 -182 142 -278.5t270 -72.5t229.5 127.5t113.5 209t83 105.5q35 0 35 -63v-7q-145 -445 -439.5 -476.5t-427 124.5t-132.5 555zM111 1739.5q14 107.5 97 107.5q122 0 133 -107.5 t-94 -118.5q-150 11 -136 118.5zM111 1739.5q14 107.5 97 107.5q122 0 133 -107.5t-94 -118.5q-150 11 -136 118.5zM135 579q211 46 376 179t157 339.5t-205 197t-285 -325t-43 -390.5zM507 1727q14 108 97 108q122 0 132.5 -108t-93.5 -119q-150 11 -136 119z" />
<glyph unicode="&#xec;" horiz-adv-x="706" d="M-117 1877l15 24q22 35 65 25l18 -12q125 -123 203.5 -194.5t128.5 -94t33 -49.5l-7 -12q-112 -73 -255 88t-201 225zM38 1288v14q4 106 154.5 92t153.5 -65l7 -126q-55 -1103 51.5 -1089.5t96 160.5t54.5 143t46.5 -208.5t-161 -212t-187 119.5t-5.5 1156 q-160 -7 -183 -6l-7 1z" />
<glyph unicode="&#xed;" horiz-adv-x="706" d="M38 1288l1 14q4 106 154.5 92t153.5 -65l6 -126q-54 -1103 52 -1089.5t96 160.5t55 143t46.5 -208.5t-161 -212t-187.5 119.5t-5 1156q-161 -7 -184 -6l-7 1zM118 1565q-17 27 33 49.5t128.5 94t203.5 194.5l18 12q43 10 65 -25l15 -24q-58 -64 -201 -225t-255 -88z" />
<glyph unicode="&#xee;" horiz-adv-x="706" d="M-12 1658l9 13q16 53 87.5 157t202.5 204q80 4 2 -162l-183 -214q-87 -120 -118 2zM38 1288l1 14q4 106 154.5 92t153.5 -65l6 -126q-54 -1103 52 -1089.5t96 160.5t55 143t46.5 -208.5t-161 -212t-187.5 119.5t-5 1156q-161 -7 -184 -6l-7 1zM287 2032 q106 -81 155.5 -152t56.5 -95l1 -4q83 -129 18 -159t-112 91l-112 158q-88 161 -7 161z" />
<glyph unicode="&#xef;" horiz-adv-x="706" d="M-17 1699.5q14 107.5 96 107.5q123 0 133.5 -107.5t-94.5 -118.5q-149 11 -135 118.5zM-17 1699.5q14 107.5 96 107.5q123 0 133.5 -107.5t-94.5 -118.5q-149 11 -135 118.5zM38 1288v14q4 106 154.5 92t153.5 -65l7 -126q-55 -1103 51.5 -1089.5t96 160.5t54.5 143 t46.5 -208.5t-160.5 -212t-187 119.5t-6 1156q-160 -7 -183 -6l-7 1zM379 1687q14 108 96 108q123 0 133.5 -108t-94.5 -119q-149 11 -135 119z" />
<glyph unicode="&#xf0;" d="M35.5 654.5q-2.5 237.5 103 446t401 255t506.5 -176t199.5 -550t-225 -475.5t-440.5 -127.5t-384.5 205.5t-160 422.5zM143.5 671q9.5 -217 131.5 -354.5t363 -156t373 131t137 334t-93 357.5t-260.5 226t-314 20t-249 -187t-88 -371zM386 1829q193 142 351.5 37.5 t132 -301t59.5 -287.5t177.5 -194t30 -65t-146.5 72t-165.5 137.5t-59.5 295t-99.5 263t-277.5 -17.5q-37 27 -2 60zM535 1553q3 63 73 56q182 -10 352 2.5t171 -58t-55 -65.5l-514 -1q-20 2 -27 66z" />
<glyph unicode="&#xf1;" horiz-adv-x="1411" d="M-32 1333v7q11 28 49 28l181 16q87 12 129 -93q159 109 402.5 78.5t293 -240.5t24.5 -610.5t80.5 -409.5t126.5 156q-11 195 47.5 197.5t44 -219t-227 -233t-183.5 487t-17 618.5t-219 153t-334 -111q-17 -7 -13.5 -421.5t-17.5 -600.5l7 -21h28q49 0 161 -8 q36 -55 16 -86q-33 -28 -302 -11q-8 17 -8 126q16 117 7 1050q-18 91 -28 91l-191 -21q-56 28 -56 77zM144 1699q29 238 214 281t309.5 -111t249.5 -154t181.5 44t61.5 119q0 18 -9 50t35 30.5t37 -106.5t-109 -182t-232.5 -64.5t-255.5 159t-259.5 108t-177.5 -213.5 q-45 -8 -45 40z" />
<glyph unicode="&#xf2;" d="M35.5 654.5q-2.5 237.5 103 446t401 255t506.5 -176t199.5 -550t-225 -475.5t-440.5 -127.5t-384.5 205.5t-160 422.5zM113 1866l15 24q23 35 66 25l18 -12q124 -123 202.5 -194.5t129 -94t32.5 -49.5l-7 -12q-112 -73 -255 88t-201 225zM143.5 671 q9.5 -217 131.5 -354.5t363 -156t373 131t137 334t-93 357.5t-260.5 226t-314 20t-249 -187t-88 -371z" />
<glyph unicode="&#xf3;" d="M35.5 654.5q-2.5 237.5 103 446t401 255t506.5 -176t199.5 -550t-225 -475.5t-440.5 -127.5t-384.5 205.5t-160 422.5zM143.5 671q9.5 -217 131.5 -354.5t363 -156t373 131t137 334t-93 357.5t-260.5 226t-314 20t-249 -187t-88 -371zM635 1514q-17 27 33 49.5t128.5 94 t203.5 194.5l18 12q43 10 65 -25l15 -24q-58 -64 -201 -225t-255 -88z" />
<glyph unicode="&#xf4;" d="M35.5 654.5q-2.5 237.5 103 446t401 255t506.5 -176t199.5 -550t-225 -475.5t-440.5 -127.5t-384.5 205.5t-160 422.5zM143.5 671q9.5 -217 131.5 -354.5t363 -156t373 131t137 334t-93 357.5t-260.5 226t-314 20t-249 -187t-88 -371zM361 1561l9 13q16 53 87.5 157 t202.5 204q80 4 2 -162l-183 -214q-87 -120 -118 2zM660 1935q106 -81 155.5 -152t56.5 -95l1 -4q83 -129 18 -159t-112 91l-112 158q-88 161 -7 161z" />
<glyph unicode="&#xf5;" d="M35.5 654.5q-2.5 237.5 103 446t401 255t506.5 -176t199.5 -550t-225 -475.5t-440.5 -127.5t-384.5 205.5t-160 422.5zM112 1576q29 238 214 281t309.5 -111t249.5 -154t181.5 44t61.5 119q0 18 -9 50t35 30.5t37 -106.5t-109 -182t-232.5 -64.5t-255.5 159t-259.5 108 t-177.5 -213.5q-45 -8 -45 40zM143.5 671q9.5 -217 131.5 -354.5t363 -156t373 131t137 334t-93 357.5t-260.5 226t-314 20t-249 -187t-88 -371z" />
<glyph unicode="&#xf6;" d="M35.5 654.5q-2.5 237.5 103 446t401 255t506.5 -176t199.5 -550t-225 -475.5t-440.5 -127.5t-384.5 205.5t-160 422.5zM143.5 671q9.5 -217 131.5 -354.5t363 -156t373 131t137 334t-93 357.5t-260.5 226t-314 20t-249 -187t-88 -371zM290 1678.5q14 107.5 97 107.5 q122 0 133 -107.5t-94 -118.5q-150 11 -136 118.5zM290 1678.5q14 107.5 97 107.5q122 0 133 -107.5t-94 -118.5q-150 11 -136 118.5zM686 1666q14 108 97 108q122 0 132.5 -108t-93.5 -119q-150 11 -136 119z" />
<glyph unicode="&#xf7;" horiz-adv-x="950" d="M26 731q4 63 102 56q253 -10 489.5 2.5t237.5 -58t-76 -65.5l-715 -1q-28 2 -38 66zM268 1036v49q35 154 140 154q155 0 182 -189q0 -84 -133 -98q-25 0 -98 84v-14l14 -77l-35 -14q-70 35 -70 105zM273 337v49q35 154 140 154q155 0 182 -189q0 -84 -133 -98 q-25 0 -98 84v-14l14 -77l-35 -14q-70 35 -70 105zM464 1078l28 -14h7q-24 49 -35 49v-35zM469 379l28 -14h7q-24 49 -35 49v-35z" />
<glyph unicode="&#xf8;" d="M35.5 654.5q-2.5 237.5 103 446t401 255t506.5 -176t199.5 -550t-225 -475.5t-440.5 -127.5t-384.5 205.5t-160 422.5zM143.5 671q9.5 -217 131.5 -354.5t363 -156t373 131t137 334t-93 357.5t-260.5 226t-314 20t-249 -187t-88 -371zM199 -122q724 1705 808 1705h7 l35 -35v-14q-689 -1508 -768 -1712l-54 14q-28 14 -28 42z" />
<glyph unicode="&#xf9;" horiz-adv-x="1326" d="M1 1338q3 14 35 28l249 14q58 0 72 -70l-7 -21q0 -24 -221 -21h-84q-49 28 -44 70zM113 1866l15 24q23 35 66 25l18 -12q124 -123 202.5 -194.5t129 -94t32.5 -49.5l-7 -12q-112 -73 -255 88t-201 225zM116 1262q5 37 40.5 48t59.5 19q-18 -762 32 -990t245.5 -228 t267 113.5t82.5 251.5l-17 760q-2 131 60 133t72 -233q-25 -888 27.5 -964t111.5 -65t52.5 151.5t39.5 136.5t46 -160.5t-57 -198t-149 -32.5t-155 172q-17 2 -63 -49q-152 -163 -392 -127.5t-281 347t-22 915.5zM688 1342q3 14 35 28l249 14q58 0 72 -70l-7 -21 q0 -24 -221 -21h-84q-49 28 -44 70z" />
<glyph unicode="&#xfa;" horiz-adv-x="1326" d="M1 1338q3 14 35 28l249 14q58 0 72 -70l-7 -21q0 -24 -221 -21h-84q-49 28 -44 70zM116 1262q5 37 40.5 48t59.5 19q-18 -762 32 -990t245.5 -228t267 113.5t82.5 251.5l-17 760q-2 131 60 133t72 -233q-25 -888 27.5 -964t111.5 -65t52.5 151.5t39.5 136.5t46 -160.5 t-57 -198t-149 -32.5t-155 172q-17 2 -63 -49q-152 -163 -392 -127.5t-281 347t-22 915.5zM445 1565q-17 27 33 49.5t128.5 94t203.5 194.5l18 12q43 10 65 -25l15 -24q-58 -64 -201 -225t-255 -88zM688 1342q3 14 35 28l249 14q58 0 72 -70l-7 -21q0 -24 -221 -21h-84 q-49 28 -44 70z" />
<glyph unicode="&#xfb;" horiz-adv-x="1326" d="M1 1338q3 14 35 28l249 14q58 0 72 -70l-7 -21q0 -24 -221 -21h-84q-49 28 -44 70zM116 1262q5 37 40.5 48t59.5 19q-18 -762 32 -990t245.5 -228t267 113.5t82.5 251.5l-17 760q-2 131 60 133t72 -233q-25 -888 27.5 -964t111.5 -65t52.5 151.5t39.5 136.5t46 -160.5 t-57 -198t-149 -32.5t-155 172q-17 2 -63 -49q-152 -163 -392 -127.5t-281 347t-22 915.5zM331 1649l9 13q16 53 87.5 157t202.5 204q80 4 2 -162l-183 -214q-87 -120 -118 2zM630 2023q106 -81 155.5 -152t56.5 -95l1 -4q83 -129 18 -159t-112 91l-112 158q-88 161 -7 161z M688 1342q3 14 35 28l249 14q58 0 72 -70l-7 -21q0 -24 -221 -21h-84q-49 28 -44 70z" />
<glyph unicode="&#xfc;" horiz-adv-x="1326" d="M1 1338q3 14 35 28l249 14q58 0 72 -70l-7 -21q0 -24 -221 -21h-84q-49 28 -44 70zM116 1262q5 37 40.5 48t59.5 19q-18 -762 32 -990t245.5 -228t267 113.5t82.5 251.5l-17 760q-2 131 60 133t72 -233q-25 -888 27.5 -964t111.5 -65t52.5 151.5t39.5 136.5t46 -160.5 t-57 -198t-149 -32.5t-155 172q-17 2 -63 -49q-152 -163 -392 -127.5t-281 347t-22 915.5zM264 1704.5q14 107.5 97 107.5q122 0 133 -107.5t-94 -118.5q-150 11 -136 118.5zM264 1704.5q14 107.5 97 107.5q122 0 133 -107.5t-94 -118.5q-150 11 -136 118.5zM660 1692 q14 108 97 108q122 0 132.5 -108t-93.5 -119q-150 11 -136 119zM688 1342q3 14 35 28l249 14q58 0 72 -70l-7 -21q0 -24 -221 -21h-84q-49 28 -44 70z" />
<glyph unicode="&#xfd;" horiz-adv-x="1281" d="M-215 -419q17 147 110 205.5t195 50.5t159 -70t52 -172t-166 -156h-35q-56 23 -56 63q14 84 119 35h7q24 0 34.5 98t-145 93t-166 -196t210 -226t340 97t165.5 631l-5 7q0 91 -434 1228l-133 12q-38 30 -19 74t347 21q57 16 64 -61q0 -51 -119 -40q-16 -3 361 -1036 l268 1024h-87q-77 8 -67.5 62.5t72.5 56t188 1.5h189l21 -21q23 -89 -81 -103l-117 -3q-320 -1126 -320 -1236q-71 -564 -227.5 -709t-379.5 -117.5t-292.5 134t-52.5 253.5zM615 1581q-17 27 33 49.5t128.5 94t203.5 194.5l18 12q43 10 65 -25l15 -24q-58 -64 -201 -225 t-255 -88z" />
<glyph unicode="&#xfe;" horiz-adv-x="1545" d="M8 1377q-10 55 47 60l460 -3q49 -16 49 -56q13 -45 -47 -51l-173 -12v-7l7 -63l10 -1562q9 -13 219 -13q47 -11 43 -61.5t-50 -50.5l-533 -2q-14 0 -28 42q0 70 70 70l140 8l19 1639q2 4 -160 9q-82 9 -73 53zM295 83q546 9 770 74.5t241 324.5t-111 402.5t-763 115.5 q-130 -11 -136.5 50.5t227.5 88.5q626 -4 767 -180t112 -512.5t-337 -399t-697 -59.5q-37 2 -71 19t-2 76z" />
<glyph unicode="&#xff;" horiz-adv-x="1281" d="M-215 -419q17 147 110 205.5t195 50.5t159 -70t52 -172t-166 -156h-35q-56 23 -56 63q14 84 119 35h7q24 0 34.5 98t-145 93t-166 -196t210 -226t340 97t165.5 631l-5 7q0 91 -434 1228l-133 12q-38 30 -19 74t347 21q57 16 64 -61q0 -51 -119 -40q-16 -3 361 -1036 l268 1024h-87q-77 8 -67.5 62.5t72.5 56t188 1.5h189l21 -21q23 -89 -81 -103l-117 -3q-320 -1126 -320 -1236q-71 -564 -227.5 -709t-379.5 -117.5t-292.5 134t-52.5 253.5zM351 1709.5q14 107.5 97 107.5q122 0 133 -107.5t-94 -118.5q-150 11 -136 118.5zM351 1709.5 q14 107.5 97 107.5q122 0 133 -107.5t-94 -118.5q-150 11 -136 118.5zM747 1697q14 108 97 108q122 0 132.5 -108t-93.5 -119q-150 11 -136 119z" />
<glyph unicode="&#x152;" horiz-adv-x="3310" d="M30.5 1052.5q59.5 393.5 295 625.5t540.5 250.5t594 -203.5t320.5 -645t-152.5 -731t-728.5 -317t-736.5 309t-132.5 711.5zM203 566.5q140 -348.5 469 -406t549 23.5t343.5 300.5t105 552.5t-200 514t-389 222.5t-459.5 -51.5t-405 -450t-13 -705.5zM1356 90q0 42 42 56 l182 -7h84l35 14l23 365q-23 1281 -77 1281l-133 -14q-77 14 -77 70v21q0 21 56 35l154 -7h364l734 20h84l252 7q56 -29 56 -63l13 -448q-37 -28 -77 -28h-21q-28 9 -28 63l1 356q0 14 -1240 -17q-5 12 -5 -30l35 -595l56 -14l462 -14v-7q-9 194 -11.5 253t67.5 67.5 t70 -306.5q14 -469 17.5 -535.5t-59.5 -66.5q-56 0 -56 105l-19 382l-506 -11q5 -685 12 -876q46 -7 168 -7h168l784 14q146 9 154 18.5t-5.5 182t35.5 172.5h42q42 0 44.5 -242.5t-95.5 -242.5l-1701 -21q-84 16 -84 70z" />
<glyph unicode="&#x153;" horiz-adv-x="2241" d="M35.5 654.5q-2.5 237.5 103 446t401 255t506.5 -176t199.5 -550t-225 -475.5t-440.5 -127.5t-384.5 205.5t-160 422.5zM143.5 671q9.5 -217 131.5 -354.5t363 -156t373 131t137 334t-93 357.5t-260.5 226t-314 20t-249 -187t-88 -371zM1165 732q32 399 164 570.5 t362 146.5t240.5 -312t-258.5 -454.5t-382 -167.5v-7q24 -182 142 -278.5t270 -72.5t229.5 127.5t113.5 209t83 105.5q35 0 35 -63v-7q-145 -445 -439.5 -476.5t-427 124.5t-132.5 555zM1291 630q211 46 376 179t157 339.5t-205 197t-285 -325t-43 -390.5z" />
<glyph unicode="&#x178;" horiz-adv-x="1966" d="M146 1829v28q19 63 203 63h301q77 0 87 -71q46 -80 -206 -76l423 -782q177 479 307.5 723.5t361.5 269.5t283 -184t-166 -260h-105q-63 31 -43 78.5t78 47.5h21l42 -28q80 0 98 105q-66 186 -246 119t-293 -358.5t-204.5 -500.5t-63.5 -880h14l157 25q53 -13 53 -60 q0 -77 -77 -77h-98h-448l-28 28q0 91 91 91l204 -4q27 4 14.5 374.5t-22.5 361.5q-471 887 -489 907l-123 11q-120 -23 -126 49zM648 2180.5q14 107.5 97 107.5q122 0 133 -107.5t-94 -118.5q-150 11 -136 118.5zM648 2180.5q14 107.5 97 107.5q122 0 133 -107.5t-94 -118.5 q-150 11 -136 118.5zM1044 2168q14 108 97 108q122 0 132.5 -108t-93.5 -119q-150 11 -136 119z" />
<glyph unicode="&#x2c6;" horiz-adv-x="962" d="M172 2044l9 13q16 53 87.5 157t202.5 204q80 4 2 -162l-183 -214q-87 -120 -118 2zM471 2418q106 -81 155.5 -152t56.5 -95l1 -4q83 -129 18 -159t-112 91l-112 158q-88 161 -7 161z" />
<glyph unicode="&#x2dc;" horiz-adv-x="1305" d="M70 1558q29 238 214 281t309.5 -111t249.5 -154t181.5 44t61.5 119q0 18 -9 50t35 30.5t37 -106.5t-109 -182t-232.5 -64.5t-255.5 159t-259.5 108t-177.5 -213.5q-45 -8 -45 40z" />
<glyph unicode="&#x2000;" horiz-adv-x="1288" />
<glyph unicode="&#x2001;" horiz-adv-x="2576" />
<glyph unicode="&#x2002;" horiz-adv-x="1288" />
<glyph unicode="&#x2003;" horiz-adv-x="2576" />
<glyph unicode="&#x2004;" horiz-adv-x="858" />
<glyph unicode="&#x2005;" horiz-adv-x="644" />
<glyph unicode="&#x2006;" horiz-adv-x="429" />
<glyph unicode="&#x2007;" horiz-adv-x="429" />
<glyph unicode="&#x2008;" horiz-adv-x="322" />
<glyph unicode="&#x2009;" horiz-adv-x="515" />
<glyph unicode="&#x200a;" horiz-adv-x="143" />
<glyph unicode="&#x2010;" horiz-adv-x="950" d="M56 1060q4 63 102 56q253 -10 489.5 2.5t237.5 -58t-76 -65.5l-715 -1q-28 2 -38 66z" />
<glyph unicode="&#x2011;" horiz-adv-x="950" d="M56 1060q4 63 102 56q253 -10 489.5 2.5t237.5 -58t-76 -65.5l-715 -1q-28 2 -38 66z" />
<glyph unicode="&#x2012;" horiz-adv-x="950" d="M56 1060q4 63 102 56q253 -10 489.5 2.5t237.5 -58t-76 -65.5l-715 -1q-28 2 -38 66z" />
<glyph unicode="&#x2013;" horiz-adv-x="1162" d="M56 1060q4 63 102 56q253 -10 572 -3t320 -63.5t-76 -65.5l-880 10q-28 2 -38 66z" />
<glyph unicode="&#x2014;" horiz-adv-x="1454" d="M56 1060q4 63 102 56q253 -10 739 5t487 -55.5t-76 -65.5l-1214 -6q-28 2 -38 66z" />
<glyph unicode="&#x2018;" horiz-adv-x="470" d="M109.5 1554.5q4.5 277.5 92.5 399.5l28 5q41 8 63 -31l4 -20q-87 -212 -69.5 -381.5t140.5 -247.5q-12 -52 -44 -58l-14 -2q-205 58 -200.5 335.5z" />
<glyph unicode="&#x2019;" horiz-adv-x="470" d="M109 1279q123 78 140.5 247.5t-69.5 381.5l4 20q22 39 63 31l28 -5q88 -122 92.5 -399.5t-200.5 -335.5l-14 2q-32 6 -44 58z" />
<glyph unicode="&#x201a;" horiz-adv-x="470" d="M114 -428q123 78 140.5 247.5t-69.5 381.5l4 20q22 39 63 31l28 -5q88 -122 92.5 -399.5t-200.5 -335.5l-14 2q-32 6 -44 58z" />
<glyph unicode="&#x201c;" horiz-adv-x="780" d="M104.5 1573.5q4.5 277.5 92.5 399.5l28 5q41 8 63 -31l4 -20q-87 -212 -69.5 -381.5t140.5 -247.5q-12 -52 -44 -58l-14 -2q-205 58 -200.5 335.5zM405.5 1559.5q4.5 277.5 92.5 399.5l28 5q41 8 63 -31l4 -20q-87 -212 -69.5 -381.5t140.5 -247.5q-12 -52 -44 -58 l-14 -2q-205 58 -200.5 335.5z" />
<glyph unicode="&#x201d;" horiz-adv-x="780" d="M104 1284q123 78 140.5 247.5t-69.5 381.5l4 20q22 39 63 31l28 -5q88 -122 92.5 -399.5t-200.5 -335.5l-14 2q-32 6 -44 58zM405 1298q123 78 140.5 247.5t-69.5 381.5l4 20q22 39 63 31l28 -5q88 -122 92.5 -399.5t-200.5 -335.5l-14 2q-32 6 -44 58z" />
<glyph unicode="&#x201e;" horiz-adv-x="780" d="M104 -465q123 78 140.5 247.5t-69.5 381.5l4 20q22 39 63 31l28 -5q88 -122 92.5 -399.5t-200.5 -335.5l-14 2q-32 6 -44 58zM405 -451q123 78 140.5 247.5t-69.5 381.5l4 20q22 39 63 31l28 -5q88 -122 92.5 -399.5t-200.5 -335.5l-14 2q-32 6 -44 58z" />
<glyph unicode="&#x2022;" horiz-adv-x="654" d="M29 975v80q57 249 227 249q251 0 295 -306q0 -136 -216 -159q-40 0 -158 136v-22l22 -125l-57 -23q-113 57 -113 170zM291 1066l90 -45h22q-77 157 -112 157v-112z" />
<glyph unicode="&#x2026;" horiz-adv-x="1651" d="M104 3v49q35 154 140 154q155 0 182 -189q0 -84 -133 -98q-25 0 -98 84v-14l14 -77l-35 -14q-70 35 -70 105zM300 45l28 -14h7q-24 49 -35 49v-35zM660 40v49q35 154 140 154q155 0 182 -189q0 -84 -133 -98q-25 0 -98 84v-14l14 -77l-35 -14q-70 35 -70 105zM856 82 l28 -14h7q-24 49 -35 49v-35zM1228 36v49q35 154 140 154q155 0 182 -189q0 -84 -133 -98q-25 0 -98 84v-14l14 -77l-35 -14q-70 35 -70 105zM1424 78l28 -14h7q-24 49 -35 49v-35z" />
<glyph unicode="&#x202f;" horiz-adv-x="515" />
<glyph unicode="&#x2039;" horiz-adv-x="962" d="M26 656q61 132 313.5 276.5t337.5 192.5l4 1q129 83 159 18t-91 -112l-562 -369q-161 -88 -161 -7zM27 655q-5 81 161 3l624 -392q120 -87 -1 -118l-14 9q-53 16 -408.5 199.5t-361.5 298.5z" />
<glyph unicode="&#x203a;" horiz-adv-x="962" d="M109 1144q30 65 159 -18l4 -1q85 -48 337.5 -192.5t313.5 -276.5q0 -81 -161 7l-562 369q-121 47 -91 112zM137 266l624 392q166 78 161 -3q-6 -115 -361.5 -298.5t-408.5 -199.5l-14 -9q-121 31 -1 118z" />
<glyph unicode="&#x205f;" horiz-adv-x="644" />
<glyph unicode="&#x20ac;" horiz-adv-x="1192" d="M2.5 1126q52.5 367 192.5 552t394.5 187.5t373.5 -116.5q96 -116 63.5 -158t-178 65t-365 67t-333 -486t38 -777t390.5 -327t343.5 85t152.5 28t-92 -151.5t-460 -76t-446.5 381.5t-74 726zM4 1116q4 63 102 56q253 -10 489.5 2.5t237.5 -58t-76 -65.5l-715 -1 q-28 2 -38 66zM13 820q4 63 102 56q253 -10 489.5 2.5t237.5 -58t-76 -65.5l-715 -1q-28 2 -38 66z" />
<glyph unicode="&#x2122;" horiz-adv-x="1497" />
<glyph unicode="&#x25fc;" horiz-adv-x="1370" d="M0 0v1370h1370v-1370h-1370z" />
</font>
</defs>
</svg>
